<svg width="548" height="439" viewBox="0 0 548 439" fill="none" xmlns="http://www.w3.org/2000/svg">
<path fill-rule="evenodd" clip-rule="evenodd" d="M493.52 438C527.736 392.274 548 335.504 548 274C548 122.674 425.326 0 274 0C122.674 0 0 122.674 0 274C0 335.504 20.2641 392.274 54.48 438H493.52Z" fill="white"/>
<path fill-rule="evenodd" clip-rule="evenodd" d="M199.125 334.444C199.125 328.034 193.919 322.831 187.511 322.831H21.604C15.1938 322.831 9.98956 328.034 9.98956 334.444V426.511C9.98956 432.921 15.1938 438.124 21.604 438.124H187.511C193.919 438.124 199.125 432.921 199.125 426.511V334.444Z" fill="#8ABBB8"/>
<path fill-rule="evenodd" clip-rule="evenodd" d="M42.7899 415.741H23.2714V429.54H42.7899V415.741ZM113.442 389.954H23.2263V409.534H113.442V389.954ZM185.247 389.954H138.94V409.534H185.247V389.954Z" fill="white"/>
<path d="M199.124 354.94H9.98956V382.028H199.124V354.94Z" fill="black"/>
<path fill-rule="evenodd" clip-rule="evenodd" d="M39.7175 401.946C39.642 400.704 39.7818 399.331 40.0583 398.051C40.4865 396.072 41.2596 394.325 41.9801 393.552C42.6037 392.884 43.2856 392.745 43.8538 392.937C44.6666 393.211 45.147 393.939 45.2356 394.973C45.3628 396.456 44.6036 398.704 44.3227 399.347C43.6715 400.832 42.8449 401.943 41.8933 402.819C42.029 403.462 42.2608 404.012 42.6953 404.34C43.1563 404.688 43.8167 404.717 44.7152 404.455C45.1915 404.317 46.1712 403.702 47.122 402.945C46.962 401.987 47.131 400.965 47.5064 400.205C48.0849 399.034 49.1097 398.517 50.0617 398.837C50.7078 399.055 51.0591 399.429 51.2407 399.833C51.4778 400.363 51.4314 401.07 50.9872 401.833C50.6894 402.345 50.1926 402.921 49.6054 403.485C49.8984 403.72 50.3293 403.836 50.9098 403.825C51.6294 403.813 52.7205 403.259 53.9192 402.624C56.0515 401.498 58.4288 400.043 59.8211 399.667C61.0287 399.339 61.8015 399.736 62.1216 400.42C62.3715 400.952 62.6051 401.339 62.8463 401.595C62.9626 401.721 63.0629 401.808 63.1794 401.831C63.3354 401.859 63.4862 401.785 63.6509 401.708C63.8634 401.605 64.0803 401.47 64.3067 401.318C65.8772 400.276 67.7731 398.819 70.363 399.7C71.4326 400.064 71.7243 401.052 71.5358 402.274C71.4823 402.622 71.397 402.988 71.3443 403.326C71.3363 403.38 71.3297 403.444 71.3253 403.505C71.4508 403.498 71.5891 403.475 71.7363 403.446C72.1335 403.375 72.5716 403.249 73.0144 403.111C74.065 402.788 75.1392 402.427 75.8741 402.381C83.6687 401.874 91.5154 402.005 99.301 401.339C99.8644 401.29 100.361 401.71 100.409 402.274C100.457 402.837 100.039 403.331 99.4757 403.38C91.676 404.048 83.8154 403.918 76.0068 404.425C75.2475 404.473 74.0781 404.952 73.0149 405.247C72.0531 405.515 71.153 405.628 70.5374 405.469C69.4486 405.185 69.1228 404.225 69.3287 402.957C69.3766 402.663 69.4465 402.35 69.4972 402.048C69.52 401.913 69.531 401.715 69.5356 401.587C68.5948 401.324 67.8064 401.575 67.1135 401.943C66.5017 402.271 65.9524 402.686 65.4393 403.026C64.5079 403.644 63.6283 403.997 62.802 403.843C62.0535 403.703 61.2187 403.144 60.438 401.636C60.3027 401.667 60.1256 401.713 59.9804 401.767C59.4961 401.948 58.9261 402.23 58.3105 402.555C56.2771 403.631 53.7932 405.152 52.1213 405.661C51.6827 405.797 51.2862 405.866 50.9487 405.874C49.5747 405.9 48.6426 405.454 48.0296 404.816C46.9284 405.641 45.8314 406.266 45.2852 406.422C43.5762 406.919 42.3394 406.637 41.4629 405.976C40.8775 405.536 40.4386 404.898 40.1462 404.12C39.8555 404.297 39.5577 404.463 39.254 404.619C37.3719 405.587 35.2427 406.197 33.1647 407.241C32.6597 407.495 32.0436 407.29 31.7898 406.786C31.536 406.279 31.7401 405.664 32.2454 405.41C33.9226 404.568 35.6324 404.005 37.2218 403.313C38.104 402.929 38.9477 402.504 39.7175 401.946ZM43.2031 395.324C42.9186 395.782 42.6508 396.415 42.4203 397.134C42.2841 397.559 42.1622 398.015 42.0608 398.484C41.9781 398.868 41.9082 399.26 41.8557 399.654C42.0687 399.311 42.2662 398.934 42.4467 398.522C42.6377 398.087 43.1248 396.717 43.1955 395.595C43.2013 395.503 43.2042 395.411 43.2031 395.324Z" fill="black"/>
<path d="M530.005 284.743H247.397V437.942H530.005V284.743Z" fill="#E4E4E6"/>
<path fill-rule="evenodd" clip-rule="evenodd" d="M441.346 420.732C442.39 416.914 444.059 413.087 446.375 409.883C446.838 409.244 447.618 408.003 448.515 407.185C449.351 406.423 450.301 406.029 451.22 406.233C452.279 406.465 452.825 407.241 452.939 408.341C453.106 409.973 452.076 412.526 451.676 413.245C449.717 416.786 446.525 419.668 443.134 421.995C442.986 422.621 442.888 423.274 442.933 423.877C442.991 424.648 443.331 425.319 444.276 425.583C446.21 426.119 448.356 425.563 450.408 424.532C451.195 424.136 451.966 423.672 452.706 423.16C452.724 422.84 452.755 422.545 452.787 422.308C453.211 418.919 455.132 415.738 457.439 413.286C457.801 412.901 458.997 411.535 459.976 411.128C460.814 410.78 461.567 410.9 462.117 411.602C462.627 412.253 462.748 413.174 462.506 414.204C462.102 415.937 460.658 418.069 460.056 418.899C458.854 420.555 456.969 422.52 454.778 424.183C454.796 424.291 454.823 424.394 454.861 424.485C454.883 424.539 454.897 424.597 454.951 424.617C455.88 424.968 456.884 424.579 457.868 423.998C459.712 422.909 461.44 421.04 462.522 420.041C462.991 419.607 463.765 418.798 464.579 418.309C465.365 417.835 466.197 417.658 466.937 417.92C467.845 418.242 468.182 418.868 468.184 419.683C468.184 420.157 468.014 420.75 467.764 421.376C467.541 421.932 467.252 422.529 467.087 423.086C467.033 423.265 466.991 423.435 466.984 423.595C466.977 423.707 467.02 423.797 467.149 423.848C467.726 424.076 468.227 423.924 468.69 423.618C469.358 423.173 469.959 422.455 470.558 421.731C471.43 420.678 472.298 419.61 473.227 419.006C474.046 418.476 474.913 418.26 475.861 418.494C477.218 418.832 477.47 419.958 477.113 421.449C477.001 421.926 476.833 422.446 476.755 422.934C476.71 423.224 476.607 423.524 476.898 423.654C477.347 423.853 477.772 423.759 478.188 423.573C478.584 423.397 478.973 423.135 479.359 422.862C480.072 422.362 480.781 421.816 481.503 421.465C482.109 421.17 482.728 421 483.361 421.02C483.899 421.038 484.253 421.208 484.499 421.411C484.8 421.662 484.977 421.993 485.046 422.393C485.084 422.603 485.086 422.842 485.069 423.093C485.06 423.224 485.051 423.43 485.044 423.578C487.136 423.85 489.475 423.195 491.565 423.057C495.126 422.818 498.723 423.028 502.268 422.708C502.831 422.657 503.33 423.072 503.379 423.636C503.43 424.199 503.015 424.698 502.451 424.749C498.89 425.071 495.278 424.861 491.701 425.1C489.428 425.252 486.873 425.925 484.61 425.585C484.092 425.509 483.75 425.308 483.51 425.073C483.24 424.807 483.084 424.478 483.019 424.103C482.974 423.846 482.978 423.557 482.999 423.269C483.003 423.218 483.008 423.153 483.012 423.088C482.61 423.155 482.223 423.381 481.832 423.631C481.159 424.063 480.495 424.601 479.818 425.017C478.622 425.753 477.385 426.11 476.066 425.525C475.114 425.102 474.743 424.387 474.683 423.526C474.64 422.941 474.786 422.256 474.96 421.595C475.04 421.289 475.125 420.989 475.179 420.712C475.192 420.638 475.204 420.537 475.208 420.455C474.774 420.412 474.394 420.654 474.017 420.967C473.368 421.503 472.763 422.283 472.137 423.037C471.401 423.926 470.641 424.78 469.821 425.326C468.795 426.005 467.675 426.258 466.4 425.755C465.251 425.303 464.892 424.492 464.936 423.511C464.965 422.862 465.24 422.093 465.555 421.342C465.707 420.982 465.866 420.625 465.985 420.292C466.032 420.16 466.074 419.981 466.101 419.847C466.034 419.862 465.965 419.896 465.895 419.927C465.707 420.008 465.522 420.128 465.343 420.26C464.769 420.681 464.25 421.233 463.91 421.548C462.752 422.616 460.883 424.595 458.909 425.762C457.345 426.687 455.706 427.094 454.226 426.533C453.67 426.323 453.276 425.92 453.028 425.4C452.471 425.75 451.904 426.075 451.329 426.363C448.79 427.637 446.118 428.221 443.729 427.557C441.536 426.946 440.854 425.281 440.887 423.446C440.659 423.584 440.434 423.718 440.208 423.853C438.737 424.72 437.136 425.806 435.489 426.321C435.502 426.316 435.545 426.3 435.545 426.3C435.545 426.3 435.283 426.39 435.162 426.401C434.979 426.421 434.823 426.394 434.704 426.354C434.472 426.276 434.302 426.137 434.181 425.967C433.855 425.507 433.964 424.867 434.425 424.541C434.57 424.438 434.733 424.378 434.896 424.358C436.392 423.888 437.829 422.876 439.166 422.089C439.893 421.662 440.621 421.21 441.346 420.732ZM435.806 424.722L435.82 424.74L435.817 424.736L435.806 424.722ZM435.768 424.68L435.784 424.695L435.779 424.691L435.768 424.68ZM435.73 424.642L435.746 424.655L435.739 424.648L435.73 424.642ZM435.692 424.606L435.699 424.613L435.694 424.608L435.692 424.606ZM460.582 413.149C460.387 413.277 460.117 413.462 459.949 413.619C459.493 414.043 459.104 414.506 458.932 414.69C457.199 416.532 455.688 418.825 455.056 421.313C456.419 420.104 457.582 418.821 458.398 417.696C458.842 417.081 459.839 415.655 460.333 414.321C460.468 413.952 460.568 413.594 460.579 413.272C460.582 413.23 460.584 413.19 460.582 413.149ZM444.113 418.74C446.422 416.909 448.495 414.768 449.883 412.255C450.151 411.775 450.804 410.25 450.9 409.023C450.916 408.828 450.916 408.645 450.891 408.479C450.875 408.372 450.884 408.256 450.779 408.234C450.645 408.202 450.518 408.263 450.39 408.332C450.22 408.424 450.057 408.553 449.896 408.699C449.109 409.418 448.443 410.523 448.036 411.084C446.373 413.382 445.072 416.024 444.113 418.74Z" fill="black"/>
<path fill-rule="evenodd" clip-rule="evenodd" d="M405.161 389.276V386.837C405.161 385.904 405.85 385.147 406.697 385.147C407.545 385.147 408.234 385.904 408.234 386.837V390.774C408.234 391.706 407.545 392.464 406.697 392.464H406.695C406.482 392.588 406.239 392.655 405.98 392.655H272.47C272.201 392.655 271.948 392.579 271.728 392.447C270.882 392.441 270.199 391.687 270.199 390.757V386.837C270.199 385.904 270.888 385.147 271.735 385.147C272.583 385.147 273.272 385.904 273.272 386.837V389.276H405.161ZM458.183 352.67V349.496C458.183 348.564 458.872 347.806 459.719 347.806C460.567 347.806 461.256 348.564 461.256 349.496V353.433C461.256 353.799 461.151 354.137 460.971 354.413C460.943 355.32 460.267 356.05 459.435 356.05H271.845C271.827 356.05 271.809 356.05 271.792 356.05C271.771 356.05 271.753 356.05 271.735 356.05C270.888 356.05 270.199 355.292 270.199 354.36V350.439C270.199 349.507 270.888 348.75 271.735 348.75C272.583 348.75 273.272 349.507 273.272 350.439V352.67H458.183ZM270.847 320.545L270.957 316.611C270.985 315.679 271.694 314.946 272.542 314.974C273.389 315.005 274.055 315.786 274.03 316.715L273.968 318.912H458.546V316.664C458.546 315.732 459.235 314.974 460.083 314.974C460.93 314.974 461.619 315.732 461.619 316.664V320.602C461.619 321.534 460.93 322.292 460.083 322.292C460.065 322.292 460.044 322.292 460.026 322.292C460.008 322.292 459.991 322.292 459.973 322.292H272.388C272.38 322.292 272.37 322.292 272.363 322.292H272.355C272.201 322.289 272.055 322.261 271.917 322.213C271.676 322.128 271.461 321.982 271.29 321.79L271.282 321.782L271.274 321.773L271.269 321.768C271.1 321.571 270.972 321.331 270.903 321.064C270.865 320.912 270.844 320.748 270.847 320.582V320.571C270.847 320.562 270.847 320.554 270.847 320.545Z" fill="white"/>
<path fill-rule="evenodd" clip-rule="evenodd" d="M502.036 394.32V385.171C502.036 384.323 502.724 383.635 503.572 383.635C504.42 383.635 505.108 384.323 505.108 385.171V395.857C505.108 396.707 504.422 397.393 503.572 397.393H427.417C426.566 397.393 425.88 396.707 425.88 395.857V385.171C425.88 384.323 426.569 383.635 427.417 383.635C428.264 383.635 428.953 384.323 428.953 385.171V394.32H502.036Z" fill="white"/>
<path fill-rule="evenodd" clip-rule="evenodd" d="M428.953 374.068V385.077C428.953 385.925 428.264 386.613 427.417 386.613C426.569 386.613 425.88 385.925 425.88 385.077V372.532C425.88 371.684 426.566 370.996 427.417 370.996H503.572C504.422 370.996 505.108 371.684 505.108 372.532V385.077C505.108 385.925 504.42 386.613 503.572 386.613C502.724 386.613 502.036 385.925 502.036 385.077V374.068H428.953Z" fill="white"/>
<path fill-rule="evenodd" clip-rule="evenodd" d="M434.505 390.977H442.328C443.175 390.977 443.864 390.288 443.864 389.441C443.864 388.593 443.175 387.904 442.328 387.904H434.505C433.657 387.904 432.968 388.593 432.968 389.441C432.968 390.288 433.657 390.977 434.505 390.977ZM461.615 390.977H469.435C470.283 390.977 470.972 390.288 470.972 389.441C470.972 388.593 470.283 387.904 469.435 387.904H461.615C460.767 387.904 460.078 388.593 460.078 389.441C460.078 390.288 460.767 390.977 461.615 390.977ZM448.058 390.977H455.881C456.729 390.977 457.418 390.288 457.418 389.441C457.418 388.593 456.729 387.904 455.881 387.904H448.058C447.211 387.904 446.522 388.593 446.522 389.441C446.522 390.288 447.211 390.977 448.058 390.977ZM475.169 390.977H482.992C483.839 390.977 484.528 390.288 484.528 389.441C484.528 388.593 483.839 387.904 482.992 387.904H475.169C474.321 387.904 473.632 388.593 473.632 389.441C473.632 390.288 474.321 390.977 475.169 390.977ZM488.725 390.977H496.545C497.393 390.977 498.082 390.288 498.082 389.441C498.082 388.593 497.393 387.904 496.545 387.904H488.725C487.877 387.904 487.189 388.593 487.189 389.441C487.189 390.288 487.877 390.977 488.725 390.977Z" fill="white"/>
<path d="M494.553 338.568C506.445 338.568 516.086 328.928 516.086 317.036C516.086 305.143 506.445 295.503 494.553 295.503C482.661 295.503 473.02 305.143 473.02 317.036C473.02 328.928 482.661 338.568 494.553 338.568Z" fill="white"/>
<path fill-rule="evenodd" clip-rule="evenodd" d="M493.836 305.502L493.982 295.511C494.172 295.505 494.361 295.503 494.551 295.503C495.05 295.503 495.542 295.521 496.031 295.554L495.885 305.528C497.718 305.505 499.629 305.354 501.593 305.034C500.302 301.305 498.722 298.094 497.373 295.687C498.256 295.803 499.127 295.972 499.974 296.192C501.203 298.53 502.522 301.405 503.626 304.645C505.833 304.156 508.099 303.446 510.394 302.458C510.875 302.98 511.331 303.528 511.759 304.097C509.216 305.236 506.701 306.05 504.251 306.601C504.402 307.108 504.545 307.62 504.681 308.143C505.426 310.962 505.954 313.981 506.107 317.108L516.081 317.405C516.071 318.096 516.025 318.777 515.95 319.451L506.151 319.159C506.13 322.639 505.616 326.224 504.391 329.798C506.268 330.329 508.176 331.028 510.102 331.926C509.59 332.459 509.052 332.966 508.489 333.445C506.863 332.728 505.252 332.162 503.662 331.719C502.814 333.757 501.721 335.785 500.346 337.778C499.37 338.052 498.366 338.256 497.339 338.39C499.191 336.044 500.597 333.642 501.634 331.22C499.534 330.769 497.485 330.528 495.513 330.449L495.393 338.551C495.114 338.561 494.832 338.569 494.551 338.569C494.146 338.569 493.744 338.556 493.345 338.536L493.465 330.423C491.007 330.459 488.692 330.731 486.574 331.135C487.701 333.455 489.165 335.839 491.03 338.279C489.977 338.108 488.953 337.857 487.959 337.537C486.564 335.511 485.427 333.524 484.515 331.583C482.856 331.985 481.35 332.456 480.034 332.933C479.483 332.428 478.959 331.898 478.464 331.34C479.957 330.769 481.716 330.185 483.693 329.691C482.221 326.027 481.54 322.539 481.412 319.277C481.401 318.99 481.394 318.705 481.391 318.424L473.048 318.175C473.031 317.799 473.02 317.417 473.02 317.036C473.02 316.731 473.025 316.429 473.038 316.127L481.445 316.375C481.678 312.55 482.651 309.077 483.947 306.04C481.273 305.328 479.089 304.494 477.553 303.825C477.991 303.259 478.459 302.719 478.951 302.199C480.431 302.816 482.426 303.544 484.815 304.161C486.549 300.681 488.638 297.882 490.333 295.915C491.352 295.713 492.397 295.582 493.462 295.529C491.839 297.173 489.068 300.325 486.851 304.637C488.961 305.075 491.311 305.405 493.836 305.502ZM504.094 319.097L495.685 318.849L495.544 328.405C497.744 328.49 500.033 328.764 502.381 329.289C503.575 325.865 504.076 322.429 504.094 319.097ZM483.442 318.485C483.445 318.721 483.45 318.959 483.46 319.197C483.581 322.342 484.262 325.699 485.719 329.23C488.087 328.749 490.705 328.421 493.496 328.382L493.639 318.787L483.442 318.485ZM502.23 307C500.033 307.377 497.898 307.548 495.854 307.572L495.716 316.8L504.046 317.046C503.895 314.122 503.395 311.3 502.701 308.662C502.553 308.102 502.397 307.546 502.23 307ZM485.949 306.527C484.682 309.423 483.724 312.757 483.494 316.437L493.67 316.739L493.806 307.541C490.945 307.433 488.3 307.041 485.949 306.527Z" fill="#E4E4E6"/>
<path fill-rule="evenodd" clip-rule="evenodd" d="M309.226 393.37C309.866 406.128 311.909 416.982 315.351 427C317.602 433.619 323.817 438.07 330.807 438.07C330.807 438.077 330.807 438.077 330.807 438.077C336.697 438.077 342.008 434.533 344.267 429.095C348.177 419.699 351.472 408.161 353.831 393.37H309.226Z" fill="#F27F71"/>
<path fill-rule="evenodd" clip-rule="evenodd" d="M309.607 399.303C309.564 398.809 309.523 398.312 309.482 397.811L321.082 398.026C321.082 398.026 323.743 406.898 326.18 414.78C329.432 425.287 332.536 432.267 339.26 435.284C338.62 435.742 337.942 436.149 337.235 436.498C335.076 437.286 332.405 438.008 330.774 438.008C330.774 438.008 330.774 438.009 330.774 438.001C330.731 438.001 330.685 438.001 330.641 438.001C330.385 437.998 330.131 437.991 329.878 437.978L329.796 437.973C329.688 437.965 329.578 437.96 329.471 437.95L329.391 437.944L329.312 437.937L329.23 437.929C329.204 437.927 329.179 437.924 329.151 437.921L329.107 437.916C329.012 437.909 328.92 437.896 328.826 437.886C328.774 437.88 328.723 437.873 328.672 437.868L328.59 437.857C328.459 437.837 328.326 437.819 328.196 437.799L328.116 437.786C328.091 437.781 328.062 437.775 328.037 437.77L327.957 437.758C327.932 437.752 327.906 437.75 327.878 437.745L327.804 437.729C327.717 437.714 327.63 437.699 327.543 437.681C327.115 437.594 326.692 437.491 326.278 437.371C326.139 437.332 326.004 437.292 325.865 437.248C325.686 437.192 325.507 437.13 325.33 437.069C325.264 437.046 325.197 437.02 325.13 436.997L324.982 436.941C323.952 436.549 322.969 436.057 322.045 435.473L321.914 435.389C321.863 435.356 321.812 435.322 321.763 435.289L321.653 435.215L321.522 435.128L321.481 435.1C321.046 434.797 320.626 434.477 320.224 434.134C320.083 434.016 319.945 433.896 319.809 433.773L319.694 433.666L319.579 433.561C319.54 433.525 319.505 433.489 319.466 433.453L319.371 433.361C318.849 432.851 318.36 432.306 317.909 431.73C317.676 431.43 317.451 431.123 317.238 430.808C317.172 430.705 317.105 430.606 317.039 430.503C316.957 430.375 316.877 430.244 316.798 430.114L316.772 430.073L316.747 430.029C316.565 429.725 316.393 429.412 316.229 429.095L316.194 429.023L316.168 428.969C315.95 428.531 315.751 428.083 315.569 427.622L315.541 427.545C315.5 427.438 315.459 427.33 315.42 427.223C315.384 427.125 315.351 427.028 315.318 426.931L315.241 426.708L315.218 426.636L315.167 426.488L315.136 426.401L315.09 426.263L315.059 426.173L315.016 426.04L314.985 425.948L314.939 425.812L314.911 425.722L314.865 425.579L314.836 425.499L314.78 425.32L314.765 425.277L314.69 425.051L314.672 424.99L314.619 424.829L314.593 424.744L314.547 424.603L314.519 424.511L314.475 424.375L314.447 424.283L314.404 424.147L314.375 424.055L314.332 423.914L314.306 423.83L314.255 423.669L314.235 423.605L314.168 423.377L314.153 423.333L314.099 423.151L314.073 423.069L314.03 422.923L314.004 422.834L313.961 422.695L313.935 422.601L313.894 422.465L313.866 422.373L313.825 422.232L313.799 422.142L313.756 421.991L313.733 421.914L313.669 421.692L313.666 421.687L313.602 421.456L313.582 421.382L313.536 421.228L313.513 421.139L313.472 420.998L313.446 420.903L313.408 420.765L313.382 420.67L313.343 420.532L313.318 420.44L313.277 420.291L313.256 420.206L313.205 420.025L313.192 419.976L313.131 419.746L313.113 419.679L313.069 419.513L313.046 419.425L313.008 419.279L312.982 419.185L312.947 419.046L312.924 418.949L312.888 418.811L312.862 418.716L312.826 418.57L312.803 418.481L312.76 418.317L312.744 418.248L312.685 418.012L312.673 417.966L312.626 417.779L312.606 417.694L312.57 417.543L312.547 417.449L312.511 417.308L312.488 417.208L312.455 417.07L312.432 416.97L312.396 416.829L312.376 416.734L312.34 416.578L312.319 416.496L312.268 416.278L312.263 416.258L312.209 416.022L312.191 415.94L312.155 415.787L312.135 415.689L312.102 415.546L312.078 415.446L312.048 415.305L312.025 415.205L311.994 415.065L311.974 414.965L311.94 414.816L311.92 414.724L311.881 414.547L311.869 414.483L311.817 414.248L311.802 414.171L311.766 414.007L311.746 413.91L311.717 413.764L311.694 413.661L311.666 413.52L311.646 413.416L311.618 413.277L311.595 413.172L311.566 413.031L311.546 412.929L311.515 412.773L311.497 412.686L311.451 412.448L311.438 412.378L311.405 412.204L311.385 412.104L311.356 411.958L311.336 411.851L311.31 411.715L311.29 411.603L311.264 411.467L311.244 411.357L311.218 411.218L311.198 411.111L311.172 410.967L311.154 410.862L311.121 410.683L311.108 410.619L311.1 410.571L311.067 410.379L311.047 410.271L311.023 410.13L311.003 410.015L310.98 409.882L310.959 409.764L310.936 409.633L310.916 409.516L310.895 409.385L310.875 409.265L310.852 409.134L310.834 409.016L310.811 408.873L310.793 408.765L310.755 408.527L310.734 408.409L310.714 408.276L310.693 408.151L310.675 408.025L310.655 407.897L310.634 407.774L310.616 407.646L310.596 407.523L310.575 407.393L310.557 407.272L310.537 407.139L310.522 407.021L310.501 406.886L310.486 406.778L310.465 406.645L310.445 406.507L310.429 406.397L310.409 406.256L310.394 406.143L310.373 406.002L310.358 405.89L310.337 405.749L310.324 405.636L310.304 405.493L310.289 405.385L310.268 405.237L310.255 405.137L310.235 404.981L310.227 404.914L310.202 404.735L310.176 404.525L310.171 404.491L310.15 404.322L310.137 404.235L310.12 404.074L310.107 403.979L310.086 403.818L310.076 403.723L310.056 403.562L310.045 403.47L310.025 403.303L310.015 403.221L309.994 403.042L309.989 402.999L309.963 402.794C309.956 402.712 309.945 402.63 309.938 402.548L309.912 402.338L309.91 402.297L309.887 402.107L309.881 402.038L309.861 401.854L309.853 401.782L309.833 401.598L309.825 401.526L309.805 401.337L309.799 401.278L309.779 401.075L309.776 401.055C309.743 400.735 309.712 400.417 309.682 400.095L309.679 400.072L309.659 399.854L309.654 399.81L309.636 399.598L309.63 399.554L309.613 399.337L309.607 399.303Z" fill="#FFC2BA"/>
<path fill-rule="evenodd" clip-rule="evenodd" d="M170.282 393.711C170.923 406.469 172.966 417.324 176.408 427.341C178.659 433.961 184.873 438.411 191.864 438.411C191.864 438.419 191.864 438.419 191.864 438.419C197.754 438.419 203.065 434.875 205.323 429.436C209.233 420.041 212.529 408.502 214.887 393.711H170.282Z" fill="#FFC3BB"/>
<path fill-rule="evenodd" clip-rule="evenodd" d="M170.375 395.386C170.341 394.83 170.311 394.275 170.282 393.711H214.887C214.672 395.053 214.452 396.364 214.224 397.652L206.934 397.532C205.584 401.857 197.416 427.979 193.403 432.178C190.118 435.615 188.41 436.757 186.715 437.579C182.008 436.014 178.164 432.35 176.461 427.497L176.459 427.492L176.438 427.428L176.408 427.341C175.898 425.859 175.419 424.355 174.971 422.832C174.91 422.627 174.851 422.422 174.792 422.215C174.628 421.651 174.472 421.083 174.316 420.509C174.285 420.389 174.252 420.268 174.218 420.146C174.039 419.467 173.862 418.781 173.693 418.089C173.55 417.505 173.409 416.917 173.276 416.325C173.086 415.503 172.907 414.673 172.736 413.833C172.615 413.247 172.5 412.653 172.387 412.056C172.341 411.803 172.293 411.549 172.247 411.293L172.2 411.032C172.134 410.661 172.067 410.287 172.006 409.91C171.891 409.232 171.78 408.546 171.675 407.854L171.635 407.585C171.563 407.119 171.496 406.648 171.43 406.174L171.401 405.964L171.394 405.903C171.163 404.2 170.961 402.466 170.79 400.694L170.764 400.41L170.759 400.364C170.71 399.839 170.661 399.312 170.618 398.779C170.526 397.663 170.444 396.533 170.375 395.386Z" fill="#F27F71"/>
<path fill-rule="evenodd" clip-rule="evenodd" d="M383.385 274.272C385.285 273.739 386.847 273.256 387.237 273.013C391.805 270.17 395.661 265.476 397.707 260.148C399.684 255.007 400.178 249.301 397.779 244.254C394.901 248.395 390.335 251.208 386.174 251.536C381.539 251.902 377.083 249.635 374.845 243.077C372.208 235.348 377.345 229.193 385.019 227.651C387.956 227.061 391.318 227.237 394.655 228.43C394.45 226.438 393.956 224.49 393.231 222.614C391.321 217.671 387.925 213.21 383.892 209.761C382.86 208.93 382.699 207.419 383.529 206.387C384.358 205.356 385.872 205.193 386.904 206.024C391.828 209.756 396.038 214.741 398.599 220.356C400.301 224.092 401.239 228.108 401.187 232.258C403.318 234.081 405.29 236.463 406.959 239.481C411.141 247.042 411.207 255.87 408.626 263.98C406.089 271.961 400.765 279.115 394.32 283.673C393.513 284.246 390.386 285.67 386.76 287.058C387.201 289.212 387.608 291.455 387.984 293.8C395.001 337.501 394.727 378.327 381.823 419.498C378.164 431.103 367.401 438.998 355.236 438.998C355.233 439 355.233 439 355.233 439C344.429 439 334.824 432.112 331.362 421.874C327.198 409.57 322.318 395.14 322.318 395.14H204.041C204.041 395.14 197.949 412.371 193.404 425.234C190.487 433.484 182.688 439 173.938 439H173.935C163.044 439 153.589 431.492 151.122 420.883C148.315 408.807 145.137 395.14 145.137 395.14H109.555C105.425 395.14 101.552 392.726 100.09 388.864C95.5365 376.836 86.47 345.89 100.963 309.772C102.028 307.121 104.782 305.536 107.641 305.536C117.12 305.528 138.06 305.528 138.06 305.528C138.06 305.528 141.226 257.303 184.897 231.874L173.018 209.201C173.018 209.201 192.882 201.376 210.466 223.994C252.375 214.133 289.331 213.072 336.394 227.036C347.41 230.285 357.374 236.381 365.284 244.71C370.789 250.494 375.127 256.29 378.569 262.864C380.42 266.401 382.01 270.165 383.385 274.272ZM393.119 238.434C391.72 237.443 390.23 236.867 388.76 236.683C385.457 236.27 381.944 237.527 382.802 240.622C383.539 243.293 385.308 244.185 387.206 243.598C389.544 242.873 391.859 240.941 393.119 238.434Z" fill="#FFC3BB"/>
<path fill-rule="evenodd" clip-rule="evenodd" d="M203.198 397.422L207.01 385.689C207.195 385.118 207.761 384.757 208.355 384.831C208.952 384.905 209.412 385.392 209.453 385.991L210.078 395.061H204.032L203.198 397.422ZM315.083 395.061L317.059 385.249C317.149 384.813 317.518 384.491 317.963 384.462C318.406 384.432 318.816 384.706 318.959 385.128C320.411 389.415 322.693 396.152 322.693 396.152L322.683 396.155L322.311 395.061H315.083ZM361.201 313.446C361.201 280.339 335.735 252.802 302.727 250.22C278.636 248.313 254.686 248.33 230.876 250.214C197.866 252.791 172.395 280.329 172.395 313.439C172.392 313.439 172.392 313.439 172.392 313.439C172.392 347.752 199.674 375.851 233.975 376.86C255.938 377.513 277.819 377.513 299.618 376.867C333.919 375.858 361.201 347.76 361.201 313.446ZM123.258 305.554C125.295 310.092 127.167 316.253 128.449 324.616C128.664 326.012 127.703 327.32 126.307 327.533C124.909 327.748 123.601 326.788 123.387 325.392C121.949 316.012 119.801 309.738 117.591 305.557L121.848 305.554H123.258ZM133.242 305.554C134.852 309.039 136.303 313.482 137.365 319.147C137.626 320.537 136.709 321.876 135.32 322.135C133.931 322.396 132.592 321.479 132.332 320.091C131.09 313.469 129.321 308.817 127.496 305.554H133.242ZM386.752 286.976C387.195 289.13 383.01 273.089 383.379 274.191C385.277 273.658 386.841 273.175 387.23 272.932C387.51 272.758 387.789 272.577 388.063 272.389C389.113 275.786 390.331 280.139 391.407 285.061C390.101 285.642 388.483 286.313 386.752 286.976ZM397.773 244.173C397.302 245.213 401.511 238.197 401.181 232.177C402.812 233.573 404.351 235.298 405.732 237.384C405.055 240.658 403.578 244.885 400.387 249.01C400.095 249.388 399.719 249.661 399.304 249.824C399.125 247.894 398.636 245.991 397.773 244.173ZM394.646 228.349C395.087 233.756 392.762 239.049 393.112 238.353C391.714 237.362 390.224 236.786 388.751 236.601C388.626 236.586 388.501 236.572 388.375 236.561C390.398 233.223 390.073 229.603 389.52 227.28C391.194 227.388 392.925 227.733 394.646 228.349ZM184.86 231.81L186.753 235.59C187.385 236.854 186.873 238.394 185.611 239.027C184.346 239.659 182.807 239.147 182.174 237.883L180.489 234.519C181.9 233.591 183.357 232.687 184.86 231.81ZM212.237 226.868C212.237 226.868 209.748 222.997 210.46 223.913C212.178 223.509 213.889 223.119 215.594 222.744L216.421 223.914C217.235 225.068 216.959 226.667 215.807 227.483C214.652 228.298 213.051 228.022 212.237 226.868Z" fill="#F27F71"/>
<path d="M106.259 395.194C113.819 395.194 119.948 375.133 119.948 350.387C119.948 325.641 113.819 305.58 106.259 305.58C98.6987 305.58 92.5698 325.641 92.5698 350.387C92.5698 375.133 98.6987 395.194 106.259 395.194Z" fill="#F27F71"/>
<path fill-rule="evenodd" clip-rule="evenodd" d="M98.9744 330.345V370.315C98.9744 371.726 100.122 372.876 101.535 372.876C102.948 372.876 104.096 371.726 104.096 370.315V330.345C104.096 328.931 102.948 327.784 101.535 327.784C100.122 327.784 98.9744 328.931 98.9744 330.345Z" fill="#D7441E"/>
<path fill-rule="evenodd" clip-rule="evenodd" d="M108.454 330.345V370.315C108.454 371.726 109.601 372.876 111.015 372.876C112.428 372.876 113.575 371.726 113.575 370.315V330.345C113.575 328.931 112.428 327.784 111.015 327.784C109.601 327.784 108.454 328.931 108.454 330.345Z" fill="#D7441E"/>
<path fill-rule="evenodd" clip-rule="evenodd" d="M147.791 293.966C147.736 295.416 147.571 298.523 148.332 301.322C149.285 304.831 151.521 307.866 156.268 308.133C158.224 308.243 160.907 307.991 163.094 305.873C164.966 304.062 166.645 300.641 166.513 294.011L161.392 294.115C161.481 298.566 160.789 300.977 159.532 302.194C158.593 303.102 157.396 303.067 156.557 303.02C154.526 302.905 153.682 301.481 153.274 299.978C152.673 297.766 152.865 295.307 152.909 294.162L147.791 293.966Z" fill="black"/>
<path d="M322.848 230.942H221.265L223.832 242.228H325.415L322.848 230.942Z" fill="black"/>
<path fill-rule="evenodd" clip-rule="evenodd" d="M229.891 250.379C230.221 250.348 230.546 250.32 230.874 250.295C254.683 248.41 278.634 248.393 302.725 250.3C307.577 250.68 312.266 251.599 316.734 252.995V306.487H229.891V250.379Z" fill="#82B5B2"/>
<path fill-rule="evenodd" clip-rule="evenodd" d="M245.518 249.374C263.205 248.545 280.966 248.747 298.809 250.005C294.313 260.18 284.129 267.288 272.298 267.288C260.224 267.288 249.866 259.885 245.518 249.374Z" fill="#A8CFCC"/>
<path fill-rule="evenodd" clip-rule="evenodd" d="M257.645 306.538V281.591C257.645 278.616 260.057 276.203 263.03 276.203C266.006 276.203 268.418 278.616 268.418 281.591V306.538H257.645ZM275.636 306.538V287.952C275.636 284.979 278.051 282.564 281.024 282.564C283.997 282.564 286.412 284.979 286.412 287.952V306.538H275.636Z" fill="#A8CFCC"/>
<path d="M316.734 161.086H229.891V236.103H316.734V161.086Z" fill="#A8CFCC"/>
<path fill-rule="evenodd" clip-rule="evenodd" d="M243.384 236.119C244.544 221.19 257.04 209.421 272.263 209.421C287.487 209.421 299.983 221.19 301.143 236.119H243.384Z" fill="#82B5B2"/>
<path fill-rule="evenodd" clip-rule="evenodd" d="M289.572 161.086V182.342C289.572 185.315 287.16 187.729 284.187 187.729C281.214 187.729 278.799 185.315 278.799 182.342V161.086H289.572ZM271.58 161.086V175.981C271.58 178.954 269.165 181.368 266.193 181.368C263.22 181.368 260.805 178.954 260.805 175.981V161.086H271.58Z" fill="#82B5B2"/>
<path d="M230.008 333.275C245.118 333.275 257.368 321.149 257.368 306.191C257.368 291.233 245.118 279.107 230.008 279.107C214.898 279.107 202.648 291.233 202.648 306.191C202.648 321.149 214.898 333.275 230.008 333.275Z" fill="#FFCF84"/>
<path fill-rule="evenodd" clip-rule="evenodd" d="M229.989 285.093C241.766 285.093 251.329 294.559 251.329 306.218C251.329 317.878 241.766 327.344 229.989 327.344C229.51 327.344 229.122 327.729 229.122 328.202C229.122 328.676 229.51 329.06 229.989 329.06C242.723 329.06 253.063 318.825 253.063 306.218C253.063 293.612 242.723 283.376 229.989 283.376C229.51 283.376 229.122 283.761 229.122 284.235C229.122 284.708 229.51 285.093 229.989 285.093Z" fill="#FD9909"/>
<path fill-rule="evenodd" clip-rule="evenodd" d="M229.992 327.344C218.213 327.344 208.651 317.878 208.651 306.218C208.651 294.559 218.213 285.093 229.992 285.093C230.471 285.093 230.859 284.708 230.859 284.235C230.859 283.761 230.471 283.376 229.992 283.376C217.256 283.376 206.918 293.612 206.918 306.218C206.918 318.825 217.256 329.06 229.992 329.06C230.471 329.06 230.859 328.676 230.859 328.202C230.859 327.729 230.471 327.344 229.992 327.344Z" fill="#FD9909"/>
<path fill-rule="evenodd" clip-rule="evenodd" d="M233.311 333.079L232.751 328.617C232.692 328.147 233.03 327.718 233.505 327.659C233.98 327.601 234.412 327.935 234.472 328.405L235.025 332.82C234.46 332.924 233.888 333.01 233.311 333.079ZM238.427 331.968L236.877 327.44C236.724 326.991 236.967 326.504 237.421 326.352C237.873 326.2 238.366 326.441 238.518 326.889L240.06 331.388C239.524 331.598 238.98 331.791 238.427 331.968ZM214.935 328.784L217.344 324.862C217.592 324.457 218.126 324.329 218.535 324.575C218.945 324.821 219.075 325.349 218.827 325.754L216.41 329.687C215.907 329.401 215.415 329.1 214.935 328.784ZM252.527 321.578L248.545 318.661C248.162 318.379 248.081 317.842 248.365 317.461C248.649 317.08 249.192 317 249.577 317.282L253.471 320.134C253.172 320.626 252.857 321.108 252.527 321.578ZM204.015 314.631L208.694 312.547C209.129 312.352 209.644 312.545 209.84 312.977C210.036 313.409 209.841 313.917 209.405 314.111L204.61 316.248C204.395 315.717 204.195 315.178 204.015 314.631ZM256.565 299.62C256.704 300.173 256.827 300.732 256.931 301.298L252.318 302.375C251.853 302.483 251.385 302.197 251.276 301.737C251.165 301.276 251.454 300.813 251.919 300.704L256.565 299.62ZM207.409 290.938L211.532 293.607C211.932 293.866 212.045 294.398 211.783 294.795C211.521 295.191 210.984 295.302 210.583 295.043L206.478 292.385C206.773 291.892 207.085 291.409 207.409 290.938ZM210.1 287.627L213.453 290.067C213.837 290.348 213.921 290.886 213.636 291.267C213.354 291.649 212.809 291.73 212.425 291.45L208.949 288.918C209.318 288.476 209.703 288.045 210.1 287.627ZM245.831 284.091C246.302 284.422 246.763 284.768 247.212 285.128L244.215 288.869C243.917 289.24 243.371 289.302 242.996 289.008C242.622 288.714 242.559 288.174 242.856 287.802L245.831 284.091ZM241.188 281.461C241.717 281.696 242.237 281.948 242.747 282.214L240.633 286.137C240.408 286.555 239.883 286.714 239.46 286.491C239.038 286.268 238.879 285.748 239.104 285.33L241.188 281.461ZM223.882 279.79L225.102 284.097C225.23 284.553 224.962 285.027 224.501 285.155C224.04 285.283 223.561 285.017 223.433 284.561L222.205 280.227C222.757 280.064 223.315 279.918 223.882 279.79Z" fill="#FD9909"/>
<path d="M302.768 366.752C317.878 366.752 330.127 354.626 330.127 339.667C330.127 324.709 317.878 312.583 302.768 312.583C287.657 312.583 275.408 324.709 275.408 339.667C275.408 354.626 287.657 366.752 302.768 366.752Z" fill="#FFCF84"/>
<path fill-rule="evenodd" clip-rule="evenodd" d="M302.748 318.569C314.526 318.569 324.089 328.035 324.089 339.695C324.089 351.354 314.526 360.82 302.748 360.82C302.27 360.82 301.881 361.205 301.881 361.679C301.881 362.152 302.27 362.537 302.748 362.537C315.483 362.537 325.822 352.302 325.822 339.695C325.822 327.088 315.483 316.853 302.748 316.853C302.27 316.853 301.881 317.237 301.881 317.711C301.881 318.184 302.27 318.569 302.748 318.569Z" fill="#FD9909"/>
<path fill-rule="evenodd" clip-rule="evenodd" d="M302.752 360.82C290.973 360.82 281.41 351.354 281.41 339.695C281.41 328.035 290.973 318.569 302.752 318.569C303.23 318.569 303.619 318.184 303.619 317.711C303.619 317.237 303.23 316.853 302.752 316.853C290.016 316.853 279.678 327.088 279.678 339.695C279.678 352.302 290.016 362.537 302.752 362.537C303.23 362.537 303.619 362.152 303.619 361.679C303.619 361.205 303.23 360.82 302.752 360.82Z" fill="#FD9909"/>
<path fill-rule="evenodd" clip-rule="evenodd" d="M306.07 366.555L305.51 362.093C305.451 361.623 305.789 361.194 306.264 361.136C306.739 361.077 307.171 361.411 307.232 361.881L307.785 366.296C307.22 366.4 306.648 366.486 306.07 366.555ZM311.186 365.444L309.636 360.916C309.484 360.468 309.726 359.98 310.181 359.828C310.633 359.676 311.125 359.917 311.278 360.365L312.819 364.864C312.283 365.074 311.739 365.267 311.186 365.444ZM287.694 362.261L290.104 358.338C290.352 357.934 290.886 357.805 291.295 358.051C291.704 358.297 291.834 358.825 291.586 359.23L289.17 363.163C288.667 362.877 288.174 362.576 287.694 362.261ZM325.287 355.055L321.305 352.137C320.922 351.856 320.84 351.318 321.125 350.937C321.409 350.557 321.952 350.476 322.336 350.758L326.23 353.61C325.932 354.102 325.616 354.584 325.287 355.055ZM276.774 348.107L281.453 346.023C281.888 345.828 282.403 346.021 282.599 346.453C282.795 346.885 282.601 347.393 282.164 347.588L277.369 349.725C277.154 349.194 276.955 348.655 276.774 348.107ZM329.324 333.096C329.463 333.649 329.586 334.209 329.69 334.774L325.077 335.851C324.613 335.96 324.145 335.674 324.035 335.213C323.924 334.752 324.214 334.289 324.678 334.181L329.324 333.096ZM280.169 324.414L284.291 327.083C284.692 327.342 284.804 327.875 284.543 328.271C284.281 328.667 283.743 328.779 283.343 328.519L279.238 325.861C279.533 325.368 279.845 324.885 280.169 324.414ZM282.859 321.103L286.212 323.544C286.597 323.824 286.68 324.362 286.396 324.743C286.113 325.125 285.569 325.207 285.184 324.926L281.708 322.394C282.077 321.952 282.462 321.521 282.859 321.103ZM318.59 317.567C319.062 317.898 319.523 318.244 319.972 318.605L316.974 322.346C316.676 322.717 316.13 322.779 315.756 322.484C315.381 322.19 315.319 321.65 315.615 321.279L318.59 317.567ZM313.948 314.938C314.476 315.173 314.996 315.424 315.506 315.69L313.393 319.614C313.168 320.032 312.642 320.19 312.219 319.967C311.798 319.744 311.638 319.224 311.864 318.806L313.948 314.938ZM296.641 313.266L297.862 317.574C297.99 318.03 297.721 318.504 297.26 318.631C296.799 318.759 296.321 318.493 296.192 318.037L294.965 313.703C295.516 313.541 296.074 313.395 296.641 313.266Z" fill="#FD9909"/>
<path d="M170.827 160.941C185.937 160.941 198.186 148.815 198.186 133.857C198.186 118.899 185.937 106.772 170.827 106.772C155.717 106.772 143.467 118.899 143.467 133.857C143.467 148.815 155.717 160.941 170.827 160.941Z" fill="#FFCF84"/>
<path fill-rule="evenodd" clip-rule="evenodd" d="M170.807 112.758C182.585 112.758 192.148 122.224 192.148 133.884C192.148 145.544 182.585 155.01 170.807 155.01C170.329 155.01 169.941 155.394 169.941 155.868C169.941 156.341 170.329 156.726 170.807 156.726C183.542 156.726 193.881 146.491 193.881 133.884C193.881 121.277 183.542 111.042 170.807 111.042C170.329 111.042 169.941 111.426 169.941 111.9C169.941 112.374 170.329 112.758 170.807 112.758Z" fill="#FD9909"/>
<path fill-rule="evenodd" clip-rule="evenodd" d="M170.811 155.01C159.032 155.01 149.469 145.544 149.469 133.884C149.469 122.224 159.032 112.758 170.811 112.758C171.289 112.758 171.678 112.374 171.678 111.9C171.678 111.426 171.289 111.042 170.811 111.042C158.075 111.042 147.737 121.277 147.737 133.884C147.737 146.491 158.075 156.726 170.811 156.726C171.289 156.726 171.678 156.341 171.678 155.868C171.678 155.394 171.289 155.01 170.811 155.01Z" fill="#FD9909"/>
<path fill-rule="evenodd" clip-rule="evenodd" d="M174.129 160.745L173.569 156.282C173.51 155.812 173.848 155.384 174.323 155.325C174.798 155.267 175.23 155.601 175.291 156.071L175.844 160.486C175.279 160.589 174.707 160.676 174.129 160.745ZM179.245 159.633L177.695 155.106C177.543 154.657 177.785 154.17 178.24 154.018C178.692 153.866 179.184 154.106 179.337 154.555L180.878 159.054C180.342 159.263 179.798 159.457 179.245 159.633ZM155.753 156.45L158.163 152.528C158.411 152.123 158.945 151.994 159.354 152.24C159.763 152.486 159.893 153.015 159.645 153.419L157.229 157.352C156.726 157.067 156.234 156.766 155.753 156.45ZM193.346 149.244L189.364 146.327C188.981 146.045 188.899 145.507 189.184 145.127C189.468 144.746 190.011 144.666 190.395 144.947L194.289 147.8C193.991 148.292 193.675 148.773 193.346 149.244ZM144.833 142.297L149.512 140.212C149.948 140.018 150.462 140.211 150.658 140.643C150.854 141.074 150.66 141.583 150.223 141.777L145.428 143.914C145.213 143.383 145.014 142.844 144.833 142.297ZM197.384 127.286C197.522 127.839 197.645 128.398 197.749 128.963L193.136 130.04C192.672 130.149 192.204 129.863 192.094 129.402C191.983 128.941 192.273 128.479 192.738 128.37L197.384 127.286ZM148.228 118.603L152.35 121.273C152.751 121.532 152.863 122.064 152.602 122.46C152.34 122.857 151.802 122.968 151.402 122.709L147.297 120.05C147.592 119.557 147.904 119.075 148.228 118.603ZM150.918 115.293L154.271 117.733C154.656 118.014 154.739 118.551 154.455 118.933C154.172 119.314 153.628 119.396 153.243 119.116L149.767 116.584C150.137 116.141 150.521 115.711 150.918 115.293ZM186.649 111.756C187.121 112.088 187.582 112.434 188.031 112.794L185.034 116.535C184.735 116.906 184.189 116.968 183.815 116.674C183.44 116.38 183.378 115.839 183.674 115.468L186.649 111.756ZM182.007 109.127C182.535 109.362 183.056 109.613 183.565 109.879L181.452 113.803C181.227 114.221 180.701 114.379 180.278 114.157C179.857 113.934 179.698 113.414 179.923 112.996L182.007 109.127ZM164.7 107.456L165.921 111.763C166.049 112.219 165.78 112.693 165.319 112.821C164.858 112.949 164.38 112.683 164.251 112.226L163.024 107.893C163.575 107.73 164.133 107.584 164.7 107.456Z" fill="#FD9909"/>
<path d="M78.4256 260.516C93.5359 260.516 105.785 248.39 105.785 233.431C105.785 218.473 93.5359 206.347 78.4256 206.347C63.3153 206.347 51.066 218.473 51.066 233.431C51.066 248.39 63.3153 260.516 78.4256 260.516Z" fill="#FFCF84"/>
<path fill-rule="evenodd" clip-rule="evenodd" d="M78.4063 212.333C90.1839 212.333 99.7467 221.799 99.7467 233.459C99.7467 245.119 90.1839 254.585 78.4063 254.585C77.9279 254.585 77.5396 254.969 77.5396 255.443C77.5396 255.917 77.9279 256.301 78.4063 256.301C91.1407 256.301 101.48 246.066 101.48 233.459C101.48 220.852 91.1407 210.617 78.4063 210.617C77.9279 210.617 77.5396 211.002 77.5396 211.475C77.5396 211.949 77.9279 212.333 78.4063 212.333Z" fill="#FD9909"/>
<path fill-rule="evenodd" clip-rule="evenodd" d="M78.4098 254.585C66.6308 254.585 57.068 245.119 57.068 233.459C57.068 221.799 66.6308 212.333 78.4098 212.333C78.8882 212.333 79.2765 211.949 79.2765 211.475C79.2765 211.002 78.8882 210.617 78.4098 210.617C65.674 210.617 55.3359 220.852 55.3359 233.459C55.3359 246.066 65.674 256.301 78.4098 256.301C78.8882 256.301 79.2765 255.917 79.2765 255.443C79.2765 254.969 78.8882 254.585 78.4098 254.585Z" fill="#FD9909"/>
<path fill-rule="evenodd" clip-rule="evenodd" d="M81.7281 260.319L81.1682 255.857C81.1092 255.387 81.4473 254.958 81.9223 254.899C82.3973 254.841 82.8289 255.175 82.8896 255.645L83.4426 260.06C82.8775 260.164 82.3054 260.25 81.7281 260.319ZM86.8439 259.208L85.2941 254.68C85.1415 254.232 85.3842 253.744 85.8384 253.592C86.2909 253.44 86.7832 253.681 86.9358 254.129L88.477 258.628C87.9413 258.838 87.3969 259.031 86.8439 259.208ZM63.3521 256.025L65.7618 252.102C66.0097 251.697 66.5437 251.569 66.9528 251.815C67.3619 252.061 67.4919 252.589 67.244 252.994L64.8274 256.927C64.3247 256.641 63.8323 256.34 63.3521 256.025ZM100.945 248.818L96.9628 245.901C96.5797 245.62 96.4982 245.082 96.7825 244.701C97.0668 244.32 97.6095 244.24 97.9943 244.522L101.888 247.374C101.59 247.866 101.274 248.348 100.945 248.818ZM52.4323 241.871L57.1112 239.787C57.5464 239.592 58.0612 239.785 58.2571 240.217C58.453 240.649 58.2589 241.157 57.822 241.352L53.0269 243.488C52.812 242.958 52.6126 242.419 52.4323 241.871ZM104.982 226.86C105.121 227.413 105.244 227.972 105.348 228.538L100.735 229.615C100.271 229.724 99.8024 229.438 99.6932 228.977C99.5823 228.516 99.8718 228.053 100.336 227.944L104.982 226.86ZM55.8267 218.178L59.9491 220.847C60.3496 221.106 60.4623 221.639 60.2005 222.035C59.9387 222.431 59.4013 222.543 59.0009 222.283L54.8957 219.625C55.1904 219.132 55.5025 218.649 55.8267 218.178ZM58.5172 214.867L61.8699 217.308C62.2548 217.588 62.338 218.126 62.0537 218.507C61.7711 218.889 61.2268 218.971 60.8419 218.69L57.3661 216.158C57.7353 215.716 58.1202 215.285 58.5172 214.867ZM94.248 211.331C94.7196 211.662 95.1807 212.008 95.6297 212.368L92.6324 216.109C92.3342 216.48 91.7881 216.543 91.4136 216.248C91.0392 215.954 90.9768 215.414 91.2732 215.043L94.248 211.331ZM89.6055 208.702C90.1343 208.937 90.6543 209.188 91.164 209.454L89.0508 213.378C88.8254 213.796 88.3001 213.954 87.8771 213.731C87.4559 213.508 87.2964 212.988 87.5218 212.57L89.6055 208.702ZM72.2992 207.03L73.5196 211.338C73.6479 211.794 73.3792 212.268 72.9181 212.395C72.4569 212.523 71.9785 212.257 71.8502 211.801L70.6228 207.467C71.1741 207.304 71.7323 207.159 72.2992 207.03Z" fill="#FD9909"/>
<path d="M452.3 223.965C467.411 223.965 479.66 211.839 479.66 196.881C479.66 181.922 467.411 169.796 452.3 169.796C437.19 169.796 424.941 181.922 424.941 196.881C424.941 211.839 437.19 223.965 452.3 223.965Z" fill="#FFCF84"/>
<path fill-rule="evenodd" clip-rule="evenodd" d="M452.281 175.783C464.059 175.783 473.621 185.249 473.621 196.909C473.621 208.568 464.059 218.035 452.281 218.035C451.803 218.035 451.414 218.419 451.414 218.893C451.414 219.366 451.803 219.751 452.281 219.751C465.015 219.751 475.355 209.516 475.355 196.909C475.355 184.302 465.015 174.067 452.281 174.067C451.803 174.067 451.414 174.451 451.414 174.925C451.414 175.399 451.803 175.783 452.281 175.783Z" fill="#FD9909"/>
<path fill-rule="evenodd" clip-rule="evenodd" d="M452.285 218.035C440.506 218.035 430.943 208.568 430.943 196.909C430.943 185.249 440.506 175.783 452.285 175.783C452.763 175.783 453.151 175.399 453.151 174.925C453.151 174.451 452.763 174.067 452.285 174.067C439.549 174.067 429.211 184.302 429.211 196.909C429.211 209.516 439.549 219.751 452.285 219.751C452.763 219.751 453.151 219.366 453.151 218.893C453.151 218.419 452.763 218.035 452.285 218.035Z" fill="#FD9909"/>
<path fill-rule="evenodd" clip-rule="evenodd" d="M455.603 223.769L455.043 219.307C454.984 218.837 455.322 218.408 455.797 218.35C456.272 218.291 456.704 218.625 456.765 219.095L457.318 223.51C456.752 223.614 456.18 223.701 455.603 223.769ZM460.719 222.658L459.169 218.13C459.016 217.682 459.259 217.194 459.713 217.042C460.166 216.89 460.658 217.131 460.811 217.579L462.352 222.078C461.816 222.288 461.272 222.481 460.719 222.658ZM437.227 219.475L439.637 215.552C439.885 215.148 440.419 215.019 440.828 215.265C441.237 215.511 441.367 216.039 441.119 216.444L438.702 220.377C438.2 220.091 437.707 219.79 437.227 219.475ZM474.82 212.269L470.838 209.352C470.455 209.07 470.373 208.532 470.657 208.151C470.942 207.771 471.484 207.69 471.869 207.972L475.763 210.825C475.465 211.316 475.149 211.798 474.82 212.269ZM426.307 205.322L430.986 203.237C431.421 203.043 431.936 203.235 432.132 203.667C432.328 204.099 432.134 204.607 431.697 204.802L426.902 206.939C426.687 206.408 426.488 205.869 426.307 205.322ZM478.857 190.31C478.996 190.863 479.119 191.423 479.223 191.988L474.61 193.065C474.145 193.174 473.677 192.888 473.568 192.427C473.457 191.966 473.747 191.503 474.211 191.395L478.857 190.31ZM429.702 181.628L433.824 184.297C434.225 184.557 434.337 185.089 434.075 185.485C433.814 185.881 433.276 185.993 432.876 185.733L428.771 183.075C429.065 182.582 429.377 182.1 429.702 181.628ZM432.392 178.317L435.745 180.758C436.13 181.038 436.213 181.576 435.929 181.957C435.646 182.339 435.102 182.421 434.717 182.14L431.241 179.608C431.61 179.166 431.995 178.735 432.392 178.317ZM468.123 174.781C468.595 175.113 469.056 175.458 469.505 175.819L466.507 179.56C466.209 179.931 465.663 179.993 465.289 179.698C464.914 179.404 464.852 178.864 465.148 178.493L468.123 174.781ZM463.48 172.152C464.009 172.387 464.529 172.638 465.039 172.904L462.926 176.828C462.7 177.246 462.175 177.404 461.752 177.181C461.331 176.958 461.171 176.438 461.397 176.02L463.48 172.152ZM446.174 170.48L447.395 174.788C447.523 175.244 447.254 175.718 446.793 175.846C446.332 175.974 445.853 175.707 445.725 175.251L444.498 170.917C445.049 170.755 445.607 170.609 446.174 170.48Z" fill="#FD9909"/>
<path fill-rule="evenodd" clip-rule="evenodd" d="M354.747 163.906V159.634C354.747 158.927 355.32 158.354 356.027 158.354C356.734 158.354 357.308 158.927 357.308 159.634V163.906H361.579C362.286 163.906 362.859 164.48 362.859 165.186C362.859 165.893 362.286 166.467 361.579 166.467H357.308V170.739C357.308 171.445 356.734 172.019 356.027 172.019C355.32 172.019 354.747 171.445 354.747 170.739V166.467H350.473C349.766 166.467 349.193 165.893 349.193 165.186C349.193 164.48 349.766 163.906 350.473 163.906H354.747Z" fill="#FD9500"/>
<path fill-rule="evenodd" clip-rule="evenodd" d="M145.862 212.412V208.14C145.862 207.433 146.436 206.859 147.142 206.859C147.849 206.859 148.423 207.433 148.423 208.14V212.412H152.694C153.401 212.412 153.974 212.985 153.974 213.692C153.974 214.399 153.401 214.972 152.694 214.972H148.423V219.244C148.423 219.951 147.849 220.525 147.142 220.525C146.436 220.525 145.862 219.951 145.862 219.244V214.972H141.588C140.881 214.972 140.308 214.399 140.308 213.692C140.308 212.985 140.881 212.412 141.588 212.412H145.862Z" fill="#FD9500"/>
<path fill-rule="evenodd" clip-rule="evenodd" d="M438.352 256.136V251.864C438.352 251.158 438.926 250.584 439.632 250.584C440.339 250.584 440.913 251.158 440.913 251.864V256.136H445.184C445.891 256.136 446.464 256.71 446.464 257.417C446.464 258.123 445.891 258.697 445.184 258.697H440.913V262.969C440.913 263.676 440.339 264.249 439.632 264.249C438.926 264.249 438.352 263.676 438.352 262.969V258.697H434.078C433.371 258.697 432.798 258.123 432.798 257.417C432.798 256.71 433.371 256.136 434.078 256.136H438.352Z" fill="#FD9500"/>
</svg>
