<svg width="531" height="404" viewBox="0 0 531 404" fill="none" xmlns="http://www.w3.org/2000/svg">
<path d="M482.461 230.604H289.108V387.138H482.461V230.604Z" fill="#FFAFA4"/>
<path fill-rule="evenodd" clip-rule="evenodd" d="M344.968 302.41H314.693V368.154H344.968V302.41ZM463.731 305.529H433.456V368.154H463.731V305.529ZM424.146 287.988H393.867V368.154H424.146V287.988ZM384.557 265.54H354.278V368.154H384.557V265.54ZM455.213 295.216H441.582V302.663H455.213V295.216ZM336.064 292.322H322.433V299.765H336.064V292.322ZM415.822 278.385H402.191V285.832H415.822V278.385ZM375.744 255.422H362.116V262.868H375.744V255.422Z" fill="#FFF1E2"/>
<path fill-rule="evenodd" clip-rule="evenodd" d="M401.999 356.287L461.493 291.959C462.342 291.041 463.768 290.996 464.673 291.86C465.576 292.727 465.62 294.177 464.771 295.095L403.425 361.426C402.965 361.921 402.314 362.184 401.65 362.143C400.982 362.102 400.365 361.761 399.973 361.211L357.344 302.115L311.834 363.665C311.086 364.675 309.676 364.88 308.683 364.119C307.69 363.361 307.489 361.924 308.237 360.914L355.566 296.9C355.995 296.32 356.666 295.982 357.378 295.986C358.089 295.989 358.757 296.337 359.179 296.921L401.999 356.287Z" fill="#DC5D3C"/>
<path fill-rule="evenodd" clip-rule="evenodd" d="M372.841 84.1519C372.605 83.4901 372.477 82.7774 372.477 82.0351C372.477 78.5557 375.301 75.731 378.781 75.731C382.259 75.731 385.085 78.5557 385.085 82.0351C385.085 85.5142 382.259 88.3391 378.781 88.3391C377.935 88.3391 377.129 88.1722 376.39 87.8699L313.298 161.643C313.702 162.474 313.93 163.407 313.93 164.394C313.93 167.873 311.104 170.698 307.626 170.698C304.146 170.698 301.323 167.873 301.323 164.394C301.323 164.221 301.328 164.051 301.343 163.882L295.334 159.712C294.265 160.541 292.925 161.036 291.47 161.036C290.764 161.036 290.086 160.92 289.454 160.707L225.718 244.703C225.912 245.312 226.017 245.959 226.017 246.631C226.017 250.109 223.194 252.935 219.714 252.935C216.233 252.935 213.41 250.109 213.41 246.631C213.41 246.291 213.436 245.959 213.487 245.636L174.2 206.26C173.323 206.723 172.323 206.986 171.262 206.986C170.628 206.986 170.014 206.892 169.436 206.715L101.02 313.224C101.578 314.165 101.899 315.262 101.899 316.436C101.899 319.914 99.0743 322.74 95.595 322.74C92.1156 322.74 89.2909 319.914 89.2909 316.436C89.2909 312.956 92.1156 310.13 95.595 310.13C96.0241 310.13 96.4429 310.173 96.8483 310.255L165.536 203.322C165.165 202.519 164.958 201.624 164.958 200.683C164.958 197.202 167.784 194.377 171.262 194.377C174.742 194.377 177.568 197.202 177.568 200.683C177.568 201.207 177.501 201.718 177.381 202.207L216.371 241.286C217.341 240.678 218.486 240.328 219.714 240.328C220.606 240.328 221.455 240.512 222.225 240.847L285.677 157.224C285.348 156.459 285.163 155.617 285.163 154.732C285.163 151.252 287.989 148.427 291.47 148.427C294.947 148.427 297.773 151.252 297.773 154.732C297.773 154.879 297.768 155.025 297.758 155.169L303.816 159.373C304.875 158.568 306.194 158.089 307.626 158.089C308.24 158.089 308.833 158.177 309.393 158.341L372.841 84.1519Z" fill="#FFAFA4"/>
<path d="M246.557 30.5314H46.2233V181.863H246.557V30.5314Z" fill="#FFF1E2"/>
<path fill-rule="evenodd" clip-rule="evenodd" d="M86.3775 56.1326H72.7462V167.15H86.3775V56.1326ZM113.424 46.2234H99.7934V167.092H113.424V46.2234ZM140.472 71.5887H126.841V167.028H140.472V71.5887ZM167.519 55.8429H153.888V166.958H167.519V55.8429ZM194.567 86.7159H180.936V166.882H194.567V86.7159ZM221.612 109.123H207.981V166.8H221.612V109.123Z" fill="#FFAFA4" fill-opacity="0.64"/>
<path fill-rule="evenodd" clip-rule="evenodd" d="M275.37 339.937H248.136V303.713H229.496L261.753 256.936L294.01 303.713H275.37V339.937Z" fill="#E5734E"/>
<path fill-rule="evenodd" clip-rule="evenodd" d="M422.924 37.6096H450.159V73.8334H468.799L436.542 120.61L404.284 73.8334H422.924V37.6096Z" fill="#FFB000"/>
<path d="M355.138 251.992C380.207 251.992 400.529 231.32 400.529 205.82C400.529 180.321 380.207 159.649 355.138 159.649C330.069 159.649 309.747 180.321 309.747 205.82C309.747 231.32 330.069 251.992 355.138 251.992Z" fill="#FFCD80"/>
<path fill-rule="evenodd" clip-rule="evenodd" d="M344.549 174.325L342.879 174.931L342.053 172.573L344.966 171.517C345.656 171.267 346.397 171.593 346.626 172.244L348.023 176.23C350.611 175.414 353.193 174.915 355.765 174.731C359.052 174.495 362.328 174.775 365.589 175.568C365.958 175.656 366.257 175.899 366.414 176.228C366.567 176.559 366.563 176.943 366.397 177.285L362.722 184.846C362.444 185.415 361.791 185.725 361.173 185.581C357.969 184.832 354.687 184.858 351.327 185.657L355.984 198.942C368.858 196.992 376.548 200.349 379.245 208.567C380.729 213.025 380.273 217.329 377.893 221.46C375.752 225.33 372.232 228.599 367.304 231.236L369.705 238.086C369.933 238.736 369.561 239.464 368.871 239.714L366.011 240.751L365.186 238.396L366.802 237.81L364.453 231.109C364.244 230.512 364.538 229.84 365.14 229.542C370.044 227.105 373.54 224.057 375.601 220.335C377.619 216.833 377.995 213.199 376.741 209.43C374.315 202.036 367.08 199.584 355.248 201.601C354.624 201.706 354.03 201.373 353.832 200.809L348.384 185.265C348.27 184.94 348.305 184.579 348.476 184.264C348.648 183.952 348.944 183.714 349.296 183.612C353.232 182.443 357.075 182.207 360.819 182.901L363.352 177.694C360.856 177.219 358.354 177.068 355.841 177.25C353.096 177.445 350.346 178.034 347.581 179.011C346.896 179.253 346.162 178.926 345.935 178.279L344.549 174.325ZM363.963 221.703C365.59 220.528 366.658 219.318 367.105 218.034C367.377 217.212 367.487 216.357 367.436 215.473L370.059 215.229C370.122 216.427 369.968 217.584 369.595 218.718C368.86 220.821 367.001 222.858 363.912 224.731C363.571 224.937 363.158 224.99 362.786 224.872C362.417 224.753 362.129 224.477 362.004 224.122L359.084 215.791L361.574 214.888L363.963 221.703ZM338.654 193.313C338.718 192.089 338.977 190.996 339.417 190.033C339.427 190.01 339.441 189.985 339.452 189.961C340.509 187.974 342.071 186.482 344.131 185.488C344.468 185.326 344.86 185.306 345.2 185.432C345.542 185.561 345.804 185.826 345.921 186.159L348.312 192.981L345.823 193.884L343.937 188.504C343.048 189.162 342.336 189.991 341.797 190.993C341.487 191.684 341.319 192.469 341.273 193.346C341.273 193.368 341.27 193.392 341.267 193.416C341.168 194.343 341.331 195.365 341.722 196.481L339.232 197.384C338.714 195.906 338.531 194.547 338.654 193.313Z" fill="#FDA31F"/>
<path fill-rule="evenodd" clip-rule="evenodd" d="M342.846 201.656C341.155 200.776 339.95 199.363 339.258 197.391L341.748 196.488C342.222 197.84 343.023 198.827 344.184 199.428L344.225 199.45C345.153 199.976 346.428 200.195 348.048 200.164L345.849 193.891L348.338 192.988L351.095 200.853C351.223 201.218 351.164 201.628 350.936 201.964C350.711 202.295 350.338 202.518 349.932 202.561C346.794 202.887 344.439 202.546 342.846 201.656Z" fill="#FDA31F"/>
<path fill-rule="evenodd" clip-rule="evenodd" d="M359.63 209.199L361.606 214.838L359.117 215.741L356.639 208.671C356.518 208.326 356.563 207.941 356.761 207.617C356.963 207.291 357.295 207.06 357.674 206.985C361.338 206.26 364.03 206.479 365.766 207.448L365.805 207.473C367.534 208.526 368.748 210.028 369.435 211.987C369.819 213.083 370.035 214.148 370.091 215.178L367.469 215.423C367.426 214.604 367.25 213.759 366.945 212.89C366.452 211.482 365.591 210.398 364.355 209.637C363.266 209.038 361.689 208.923 359.63 209.199Z" fill="#FDA31F"/>
<path fill-rule="evenodd" clip-rule="evenodd" d="M351.685 210.567C339.266 212.326 331.913 209.009 329.425 201.064C327.866 196.295 328.172 192.014 330.257 188.221C332.166 184.75 335.604 181.666 340.629 179.026L339.192 174.929C338.964 174.278 339.336 173.548 340.022 173.299L342.062 172.56L342.888 174.917L342.095 175.204L343.481 179.158C343.691 179.758 343.395 180.433 342.788 180.73C337.806 183.181 334.376 186.02 332.562 189.321C330.797 192.536 330.611 196.165 331.936 200.224C334.164 207.341 341.071 209.747 352.436 207.919C353.054 207.819 353.644 208.151 353.84 208.71L359.55 225.002C359.667 225.334 359.627 225.703 359.449 226.02C359.268 226.339 358.959 226.573 358.599 226.67C355.385 227.523 352.515 227.82 349.996 227.578C347.813 227.462 345.763 227.078 343.841 226.427L340.405 231.96C343.25 232.671 346.26 233.049 349.426 233.102C353.109 233.128 356.751 232.512 360.356 231.255C361.043 231.017 361.773 231.343 361.999 231.988L364.348 238.689L365.195 238.382L366.02 240.737L363.927 241.496C363.241 241.745 362.5 241.421 362.272 240.771L359.91 234.032C356.4 235.123 352.859 235.652 349.278 235.625C345.262 235.56 341.5 235 337.981 233.951C337.612 233.841 337.318 233.57 337.187 233.217C337.052 232.866 337.096 232.467 337.303 232.134L342.199 224.252C342.544 223.692 343.264 223.451 343.867 223.695C345.839 224.487 347.981 224.94 350.285 225.061L350.346 225.064C352.214 225.247 354.297 225.082 356.597 224.58L351.685 210.567Z" fill="#FDA31F"/>
<path fill-rule="evenodd" clip-rule="evenodd" d="M364.789 257.789C361.417 258.495 357.921 258.867 354.345 258.867C351.379 258.867 348.977 256.421 348.977 253.407C348.977 250.394 351.379 247.947 354.345 247.947C376.887 247.947 395.188 229.331 395.188 206.402C395.188 183.472 376.887 164.856 354.345 164.856C351.379 164.856 348.977 162.409 348.977 159.396C348.977 156.382 351.379 153.935 354.345 153.935C382.812 153.935 405.924 177.445 405.924 206.402C405.924 227.864 393.225 246.333 375.062 254.455L408.712 335.198C409.87 337.972 408.595 341.18 405.867 342.354C403.139 343.531 399.986 342.234 398.828 339.46L364.789 257.789Z" fill="#DC5D3C"/>
<path fill-rule="evenodd" clip-rule="evenodd" d="M354.333 247.945C331.791 247.945 313.489 229.33 313.489 206.4C313.489 183.471 331.791 164.855 354.333 164.855C357.295 164.855 359.701 162.409 359.701 159.395C359.701 156.382 357.295 153.935 354.333 153.935C325.866 153.935 302.753 177.444 302.753 206.4C302.753 235.356 325.866 258.866 354.333 258.866C357.295 258.866 359.701 256.419 359.701 253.406C359.701 250.392 357.295 247.945 354.333 247.945Z" fill="#DC5D3C"/>
<path fill-rule="evenodd" clip-rule="evenodd" d="M426.573 275.542C426.573 275.542 423.684 264.505 424.64 250.435C425.989 230.645 438.439 213.425 456.61 206.218C474.777 199.012 495.404 203.113 509.565 216.749C512.836 219.913 515.819 223.629 518.328 228.001C530.661 249.5 534.66 273.201 524.273 296.618C524.273 296.618 530.967 341.334 521.324 373.566C516.46 389.756 502.657 401.495 486.134 403.502C485.577 403.577 485.017 403.642 484.45 403.71C469.359 405.542 454.557 398.509 446.25 385.565C430.075 360.359 405.198 321.592 405.198 321.592C405.198 321.592 391.121 322.837 385.682 323.319C383.736 323.496 381.995 322.1 381.71 320.135C381.552 318.957 381.915 317.66 383.569 316.562C383.569 316.562 381.821 316.548 380.452 316.21C378.291 315.681 377.426 313.801 377.332 311.787C377.244 309.893 377.795 307.706 380.328 306.423C377.137 307.034 374.044 304.962 373.339 301.741C373.309 301.611 373.282 301.488 373.259 301.372C373 300.202 373.165 298.976 373.718 297.918C374.242 296.912 375.144 295.809 376.688 295.144C376.688 295.144 375.185 294.67 373.561 294.158C371.216 293.417 369.615 291.213 369.615 288.715V288.711C369.615 286.496 370.93 284.497 372.947 283.65C377.325 281.804 384.478 278.794 384.478 278.794C384.478 278.794 375.265 266.843 379.096 263.332C379.777 262.707 381.297 262.345 385.766 266.215C387.454 267.676 394.006 269.542 402.296 268.386C402.296 268.386 413.143 268.317 426.573 275.542ZM436.544 146.942C450.638 146.942 462.082 158.582 462.082 172.92C462.082 187.257 450.638 198.898 436.544 198.898C422.446 198.898 411.002 187.257 411.002 172.92C411.002 158.582 422.446 146.942 436.544 146.942Z" fill="#A8CFCC"/>
<path fill-rule="evenodd" clip-rule="evenodd" d="M404.352 321.707L409.948 321.066C410.683 320.98 411.347 321.52 411.431 322.27C411.515 323.018 410.985 323.693 410.247 323.779L406.845 324.168L405.218 321.629L404.352 321.707ZM378.035 314.425L394.203 312.906C394.941 312.834 395.595 313.387 395.663 314.138C395.733 314.889 395.19 315.554 394.451 315.623L383.511 316.65C383.534 316.633 383.561 316.616 383.588 316.599C383.588 316.599 381.84 316.585 380.471 316.247C379.314 315.964 378.529 315.295 378.035 314.425ZM375.137 304.931C375.258 304.859 375.395 304.805 375.539 304.77L390.516 301.487C391.237 301.327 391.952 301.798 392.11 302.535C392.264 303.269 391.804 303.996 391.08 304.156L380.179 306.548C380.233 306.518 380.29 306.487 380.347 306.46C378.401 306.832 376.492 306.207 375.137 304.931ZM372.429 293.683L388.406 288.676C389.114 288.455 389.865 288.857 390.083 289.577C390.301 290.297 389.902 291.062 389.194 291.284L376.576 295.239C376.62 295.218 376.663 295.198 376.707 295.181C376.707 295.181 375.204 294.707 373.58 294.195C373.174 294.065 372.788 293.894 372.429 293.683ZM382.877 276.555L388.466 274.204C389.151 273.913 389.936 274.244 390.221 274.941C390.503 275.64 390.177 276.439 389.493 276.725L384.494 278.828C384.45 278.77 383.773 277.886 382.877 276.555Z" fill="#82B5B2"/>
<path fill-rule="evenodd" clip-rule="evenodd" d="M426.454 275.029C425.908 272.702 423.811 262.727 424.646 250.438C425.995 230.648 438.445 213.428 456.616 206.221C474.783 199.015 495.409 203.116 509.571 216.752C512.842 219.915 515.824 223.632 518.334 228.003C530.667 249.503 534.666 273.204 524.279 296.621C524.279 296.621 530.972 341.337 521.33 373.569C516.465 389.758 502.663 401.498 486.14 403.504C485.583 403.58 485.022 403.644 484.455 403.713C469.365 405.545 454.562 398.512 446.256 385.568L435.181 368.31L472.834 323.55C453.15 292.383 431.712 278.2 426.454 275.029Z" fill="url(#paint0_linear)"/>
<path fill-rule="evenodd" clip-rule="evenodd" d="M472.66 323.35C472.728 323.415 472.791 323.494 472.845 323.576L497.165 360.917C497.575 361.548 497.407 362.394 496.789 362.811C496.172 363.227 495.34 363.053 494.931 362.425L471.013 325.705L472.805 323.576L472.66 323.35ZM524.485 298.374L524.545 298.858L524.471 299.015C524.471 299.015 519.1 268.598 511.394 245.345C511.209 244.864 511.424 244.321 511.88 244.103C512.336 243.881 512.883 244.058 513.135 244.505C517.238 252.61 522.864 264.742 529.101 281.068C529.011 281.553 528.917 282.037 528.816 282.518L528.813 282.536L528.766 282.761L528.762 282.781L528.712 283.01L528.709 283.024C528.608 283.505 528.497 283.986 528.383 284.464L528.38 284.481L528.326 284.699L528.32 284.733L528.269 284.945L528.256 284.986L528.206 285.194L528.195 285.231L528.142 285.446L528.138 285.46C528.058 285.774 527.974 286.088 527.89 286.405L527.883 286.426L527.83 286.627L527.813 286.685L527.763 286.87L527.743 286.941L527.692 287.122L527.672 287.197L527.622 287.375L527.602 287.45L527.548 287.631L527.531 287.692L527.474 287.883C527.451 287.965 527.427 288.047 527.4 288.129L527.337 288.34L527.327 288.375L527.276 288.545L527.249 288.634L527.199 288.791L527.169 288.893L527.122 289.043L527.088 289.153L527.041 289.299L527.004 289.412L526.957 289.559L526.921 289.671L526.874 289.815L526.837 289.931L526.79 290.074L526.743 290.21L526.709 290.32L526.666 290.443L526.622 290.576L526.578 290.705L526.531 290.838L526.488 290.965L526.441 291.098L526.397 291.224L526.35 291.361L526.307 291.483L526.256 291.623L526.213 291.743L526.162 291.89L526.122 292.002L526.058 292.173L526.025 292.261L525.931 292.517L525.897 292.603L525.834 292.777L525.793 292.883L525.736 293.036L525.693 293.149L525.636 293.299L525.592 293.412L525.535 293.562L525.491 293.674L525.431 293.828L525.387 293.934L525.32 294.101L525.283 294.193L525.196 294.408L525.179 294.452L525.072 294.712L525.042 294.79L524.965 294.971L524.924 295.073L524.857 295.234L524.814 295.34L524.747 295.493L524.703 295.602L524.636 295.759L524.589 295.865L524.522 296.026L524.478 296.125L524.401 296.302L524.364 296.384L524.25 296.647L524.27 296.783L524.273 296.828L524.294 296.954L524.3 297.015L524.327 297.196L524.337 297.264L524.367 297.507L524.378 297.578L524.421 297.885L524.428 297.947L524.478 298.336L524.485 298.374ZM439.137 284.348C439.137 284.348 437.859 274.297 436.138 244.761C436.098 244.103 436.544 243.898 436.789 243.843C437.225 243.744 437.557 244.031 437.597 244.283L444.794 289.364C442.804 287.504 440.912 285.836 439.137 284.348Z" fill="#28625E"/>
<path fill-rule="evenodd" clip-rule="evenodd" d="M416.691 156.638C421.375 150.726 428.548 146.942 436.586 146.942C450.681 146.942 462.124 158.582 462.124 172.92C462.124 181.032 458.461 188.281 452.727 193.045L443.813 184.039C444.762 183.97 445.742 183.714 446.691 183.255C450.05 181.629 450.912 177.352 449.62 174.592C448.325 171.832 444.551 170.911 441.196 172.537C439.019 173.592 438.358 176.177 437.948 178.113L416.691 156.638Z" fill="black"/>
<path d="M191.651 228.453C216.72 228.453 237.042 207.782 237.042 182.282C237.042 156.782 216.72 136.111 191.651 136.111C166.582 136.111 146.26 156.782 146.26 182.282C146.26 207.782 166.582 228.453 191.651 228.453Z" fill="#A8CFCC"/>
<path fill-rule="evenodd" clip-rule="evenodd" d="M147.374 171.937C147.703 171.788 148.104 171.701 148.589 171.788C149.544 171.959 150.223 172.792 150.251 173.741C150.569 174.314 151.426 175.813 152.449 177.225C154.863 180.562 158.937 185.355 164.576 190.246C167.16 179.003 172.105 169.629 177.574 162.113C169.498 155.775 165.056 149.937 164.154 148.822C163.446 147.949 163.57 146.658 164.425 145.939C165.284 145.22 166.552 145.345 167.26 146.217C168.123 147.28 172.353 152.837 180.05 158.87C190.537 145.788 201.897 139.275 201.897 139.275C202.863 138.72 204.091 139.068 204.638 140.053C205.185 141.037 204.843 142.287 203.873 142.842C203.873 142.842 193.188 148.97 183.28 161.277C190.953 166.704 201.387 172.088 214.653 174.589C216.079 164.745 215.559 155.599 214.556 148.82C214.391 147.702 215.149 146.659 216.247 146.49C217.347 146.322 218.374 147.093 218.538 148.21C219.591 155.33 220.118 164.912 218.622 175.236C223.785 175.95 229.348 176.222 235.31 175.903C235.803 175.877 236.259 176.032 236.625 176.311C236.752 177.305 236.846 178.307 236.913 179.318C236.568 179.708 236.078 179.963 235.521 179.993C229.24 180.329 223.379 180.039 217.934 179.28C215.985 189.268 212.026 199.724 204.759 209.164C212.066 210.243 220.058 210.308 228.707 208.909C227.58 210.533 226.348 212.082 225.03 213.543C216.632 214.478 208.859 214.106 201.729 212.819C196.855 218.286 190.739 223.32 183.103 227.603C183.076 227.62 183.046 227.634 183.015 227.647C182.19 227.487 181.375 227.303 180.566 227.098C180.492 227.006 180.425 226.907 180.368 226.797C179.831 225.808 180.187 224.562 181.16 224.016C187.531 220.44 192.782 216.31 197.09 211.833C185.139 208.912 175.178 203.474 167.338 197.645C166.459 204.276 166.462 211.512 167.697 219.355C167.804 220.044 167.559 220.709 167.096 221.16C165.855 220.348 164.657 219.477 163.503 218.549C162.295 209.919 162.496 201.994 163.684 194.782C154.168 186.927 148.451 178.989 146.844 175.998C146.787 175.893 146.735 175.791 146.686 175.693C146.866 174.423 147.096 173.17 147.374 171.937ZM180.798 164.523C175.312 172.075 170.38 181.607 168.082 193.13C176.222 199.477 186.994 205.544 200.206 208.345C207.883 199.069 211.986 188.615 213.962 178.632C199.911 175.997 188.88 170.272 180.798 164.523ZM148.571 175.824C148.477 175.84 148.382 175.849 148.285 175.852C148.189 175.854 148.091 175.849 147.992 175.836C148.202 175.864 148.395 175.857 148.571 175.824Z" fill="#82B5B2"/>
<path fill-rule="evenodd" clip-rule="evenodd" d="M36.7485 269.428C36.7485 269.428 -29.959 215.741 16.3774 152.151C21.3092 145.384 51.2357 105.937 93.7621 79.1994C95.4225 78.1521 97.56 78.3261 99.0362 79.6284C99.9772 80.4795 100.589 81.779 99.9822 83.7744C99.9822 83.7744 106.564 82.3152 106.11 88.7466C106.11 88.7466 113.817 86.6444 114.085 94.7197C114.085 94.7197 126.826 78.8387 132.377 71.9196C133.832 70.1065 136.375 69.655 138.347 70.8604C138.348 70.8607 138.348 70.8607 138.348 70.8607C139.243 71.4077 139.887 72.294 140.139 73.3246C140.391 74.3552 140.23 75.4456 139.691 76.355C116.006 116.255 90.8288 152.862 65.5762 189.303C65.5762 189.303 86.407 210.738 97.1413 218.454C101.5 221.583 145.057 249.266 151.355 264.425C151.355 264.425 151.887 260.951 152.492 256.996C153.54 250.136 158.511 244.581 165.12 242.868C169.602 241.707 173.762 240.629 173.762 240.629C173.762 240.629 181.197 239.339 187.528 239.39C191.675 239.421 195.338 242.134 196.647 246.133C197.247 247.98 196.996 250.003 195.956 251.635C195.369 252.559 194.848 253.372 194.848 253.372C194.848 253.372 196.341 253.887 197.727 254.365C199.203 254.873 200.394 255.996 201.008 257.453C202.203 260.292 201.689 263.579 199.686 265.903C199.062 266.63 198.599 267.165 198.599 267.165H199.052C201.414 267.165 203.538 268.626 204.42 270.858C205.631 273.922 204.652 277.431 202.042 279.393C201.394 279.877 200.945 280.219 200.945 280.219C201.763 279.936 202.528 280.509 203.065 281.823C204.128 284.42 203.152 287.419 200.837 288.958C197.227 291.358 192.463 294.524 192.463 294.524C191.393 316.921 188.732 341.079 176.235 369.872C172.464 378.53 165.046 384.983 156.055 387.43C156.048 387.437 156.041 387.437 156.035 387.44C137.213 392.559 117.489 383.239 109.196 365.309C105.215 356.692 100.963 346.072 97.1413 333.565C97.1413 333.565 81.3191 335.667 65.5762 327.559C46.6638 317.819 27.8658 295.739 36.7485 269.428Z" fill="url(#paint1_linear)"/>
<path fill-rule="evenodd" clip-rule="evenodd" d="M8.27246 232.823C10.2593 226.619 17.194 212.685 39.2158 213.996C39.2158 213.996 47.0266 190.83 71.7233 195.491C78.7285 202.439 90.0838 213.371 97.1115 218.422C101.47 221.551 145.027 249.235 151.326 264.394L151.398 263.919C155.463 276.055 162.846 302.1 159.135 330.285C159.135 330.285 144.512 340.232 130.289 327.735C130.289 327.735 116.825 345.904 97.3534 334.318C97.2722 334.056 97.1916 333.796 97.1115 333.533C97.1115 333.533 81.2893 335.636 65.5464 327.527C46.634 317.788 27.836 295.708 36.7187 269.396C36.7187 269.396 19.1087 255.224 8.27246 232.823ZM100.851 212.382L106.582 216.009C104.515 215.05 102.59 213.829 100.851 212.382Z" fill="#FD9500"/>
<path fill-rule="evenodd" clip-rule="evenodd" d="M157.191 323.784L153.94 361.131C153.875 361.882 154.421 362.548 155.159 362.612C155.897 362.681 156.547 362.124 156.614 361.374L159.862 324.026C159.929 323.275 159.382 322.61 158.644 322.545C157.906 322.477 157.255 323.033 157.191 323.784Z" fill="#FD9500"/>
<path fill-rule="evenodd" clip-rule="evenodd" d="M87.4973 333.648C86.3536 319.984 89.408 308.872 91.4501 303.207C91.6139 302.812 92.0279 302.593 92.4399 302.678C92.8515 302.764 93.1474 303.132 93.1468 303.559C93.5423 314.667 96.4172 329.631 97.3439 334.215C97.2798 334.006 97.216 333.802 97.1526 333.593C97.1526 333.593 93.2961 334.105 87.4973 333.648ZM27.4612 260.509C32.3175 254.38 37.1185 249.742 41.588 246.23C48.4708 240.821 54.5671 238.084 58.8655 236.685C59.3627 236.573 59.869 236.839 60.0683 237.313C60.2676 237.791 60.1032 238.344 59.6778 238.63C46.6735 247.681 39.257 263.355 36.7475 269.446C36.5015 269.245 32.6185 266.075 27.4612 260.509Z" fill="#E15D33"/>
<path fill-rule="evenodd" clip-rule="evenodd" d="M200.959 280.205C201.77 279.946 202.522 280.522 203.052 281.819C203.082 281.891 203.109 281.962 203.136 282.034C200.657 283.611 195.265 286.723 190.34 287.416C189.605 287.518 188.928 286.996 188.827 286.252C188.723 285.505 189.236 284.815 189.971 284.713C194.051 284.14 198.466 281.741 200.959 280.205ZM198.59 267.162H199.039C200.133 267.162 201.177 267.476 202.069 268.035C200.59 269.134 194.695 273.311 188.518 274.806C187.797 274.98 187.076 274.526 186.901 273.793C186.73 273.062 187.176 272.325 187.898 272.151C192.115 271.127 196.188 268.752 198.59 267.162ZM194.852 253.375L197.523 254.296C195.064 257.528 190.451 262.333 184.026 263.643C183.301 263.794 182.593 263.312 182.446 262.575C182.301 261.835 182.771 261.115 183.499 260.968C188.723 259.9 192.581 256.201 194.852 253.375Z" fill="#FD9500"/>
<path fill-rule="evenodd" clip-rule="evenodd" d="M176.901 244.366C176.901 244.366 172.321 245.394 167.493 244.694C166.759 244.588 166.081 245.11 165.974 245.854C165.87 246.602 166.383 247.291 167.114 247.397C172.432 248.168 177.478 247.035 177.478 247.035C178.199 246.871 178.659 246.141 178.498 245.407C178.34 244.67 177.622 244.206 176.901 244.366Z" fill="#FD9500"/>
<path fill-rule="evenodd" clip-rule="evenodd" d="M113.31 91.3491C113.731 92.2043 114.005 93.3048 114.052 94.7163L116.077 92.1916C116.038 92.2643 115.991 92.3343 115.937 92.4009L110.916 98.5859C110.444 99.1667 109.598 99.249 109.027 98.7692C108.456 98.2893 108.375 97.4283 108.847 96.8475L113.31 91.3491ZM105.398 85.379C105.897 86.1407 106.184 87.2188 106.078 88.7377L102.965 92.3633C102.477 92.9308 101.629 92.9892 101.071 92.4937C100.513 91.9982 100.456 91.1351 100.943 90.5676L105.398 85.379ZM99.6237 80.3365C100.171 81.1559 100.407 82.2654 99.9494 83.771H99.9498C98.2696 85.3821 96.3317 87.2515 96.3317 87.2515C95.7943 87.7699 94.9441 87.7471 94.4345 87.2004C93.9249 86.6536 93.9474 85.7889 94.4848 85.2705C94.4848 85.2705 97.9163 81.961 99.6237 80.3365Z" fill="#FD9500"/>
<path fill-rule="evenodd" clip-rule="evenodd" d="M65.5837 189.286C65.5837 189.286 56.7272 180.39 51.4817 175.121C51.1213 174.759 51.0666 174.194 51.3508 173.77C51.6346 173.346 52.1788 173.181 52.6505 173.376C59.5732 176.242 71.318 181.103 71.318 181.103L65.5837 189.286Z" fill="#FD9500"/>
<path fill-rule="evenodd" clip-rule="evenodd" d="M172.656 247.53L174.692 232.337C171.438 231.19 168.25 229.695 165.174 227.832C162.627 226.293 161.789 222.938 163.302 220.348C164.818 217.758 168.116 216.908 170.659 218.447C190.034 230.17 215.12 223.682 226.644 203.976C238.165 184.268 231.791 158.753 212.415 147.032C209.869 145.491 209.03 142.138 210.547 139.548C212.06 136.958 215.358 136.105 217.904 137.646C242.372 152.447 250.421 184.67 235.87 209.557C225.084 228.006 204.89 237.278 185.196 234.814L183.871 244.697C181.442 245.868 177.416 247.383 172.656 247.53Z" fill="#DC5D3C"/>
<path fill-rule="evenodd" clip-rule="evenodd" d="M170.64 218.486C151.265 206.766 144.89 181.25 156.413 161.542C167.935 141.835 193.02 135.351 212.395 147.071C214.941 148.612 218.238 147.759 219.752 145.169C221.267 142.579 220.429 139.226 217.882 137.685C193.415 122.884 161.737 131.073 147.185 155.96C132.634 180.848 140.685 213.071 165.152 227.872C167.699 229.412 170.996 228.56 172.51 225.97C174.024 223.38 173.186 220.027 170.64 218.486Z" fill="#DC5D3C"/>
<path d="M117.557 218.453C132.132 218.453 143.947 206.435 143.947 191.609C143.947 176.784 132.132 164.766 117.557 164.766C102.983 164.766 91.1674 176.784 91.1674 191.609C91.1674 206.435 102.983 218.453 117.557 218.453Z" fill="#FFBB22"/>
<path fill-rule="evenodd" clip-rule="evenodd" d="M108.381 202.212C103.621 203.047 98.5547 203.166 93.3001 202.192C91.9279 198.944 91.1674 195.367 91.1674 191.609C91.1674 176.794 102.992 164.766 117.557 164.766C129.167 164.766 139.036 172.408 142.562 183.011C141.457 188.059 133.153 198.14 116.095 200.195C116.646 198.759 116.691 197.015 116.098 195.319C114.932 191.989 111.745 190.098 108.985 191.097C106.225 192.097 104.93 195.612 106.095 198.941C106.573 200.307 107.392 201.431 108.381 202.212Z" fill="black"/>
<path d="M126.648 162.918C136.588 162.918 144.646 154.721 144.646 144.611C144.646 134.5 136.588 126.304 126.648 126.304C116.708 126.304 108.65 134.5 108.65 144.611C108.65 154.721 116.708 162.918 126.648 162.918Z" fill="black"/>
<path fill-rule="evenodd" clip-rule="evenodd" d="M317.535 86.4474C307.823 105.167 288.488 117.933 266.244 117.933C234.245 117.933 208.26 91.5039 208.26 58.9509C208.26 39.1416 217.882 21.6004 232.637 10.9161L266.244 58.9509L317.535 86.4474Z" fill="#E5734E"/>
<path fill-rule="evenodd" clip-rule="evenodd" d="M266.258 58.9835L232.651 10.9488C241.065 4.82957 251.16 0.955558 262.091 0.170654L266.258 58.9835Z" fill="#FFBB22"/>
<path fill-rule="evenodd" clip-rule="evenodd" d="M263.583 0.0682462L266.24 0C282.542 0 297.284 6.85767 307.815 17.9013L266.24 58.9814L262.074 0.16858L262.859 0.107499L263.583 0.0682462Z" fill="#A8CFCC"/>
<path fill-rule="evenodd" clip-rule="evenodd" d="M323.52 14.4128C333.678 25.0261 339.932 39.5226 339.932 55.493C339.932 65.4217 337.513 74.7808 333.236 82.9895L281.945 55.493L323.52 14.4128Z" fill="#FFCBC4"/>
<defs>
<linearGradient id="paint0_linear" x1="424.452" y1="303.361" x2="569.475" y2="417.3" gradientUnits="userSpaceOnUse">
<stop stop-color="#82B5B2"/>
<stop offset="0.57" stop-color="#9AC1BB"/>
<stop offset="0.8" stop-color="#CED9CF"/>
<stop offset="1" stop-color="#FFF1E2"/>
</linearGradient>
<linearGradient id="paint1_linear" x1="106.475" y1="321.655" x2="-23.8687" y2="354.931" gradientUnits="userSpaceOnUse">
<stop stop-color="#FFBB22"/>
<stop offset="0.47" stop-color="#FEB019"/>
<stop offset="1" stop-color="#FD9500"/>
</linearGradient>
</defs>
</svg>
