<svg width="36" height="35" viewBox="0 0 36 35" fill="none" xmlns="http://www.w3.org/2000/svg">
<path d="M17.8698 0C8.00221 0 0 8.03348 0 17.9435C0 25.8698 5.12034 32.5941 12.2245 34.9689C13.1181 35.1342 13.4442 34.5802 13.4442 34.1043C13.4442 33.6776 13.4286 32.5495 13.4197 31.0527C8.44901 32.1362 7.39902 28.6466 7.39902 28.6466C6.58808 26.5735 5.41523 26.0217 5.41523 26.0217C3.79111 24.9092 5.53586 24.9315 5.53586 24.9315C7.32977 25.0588 8.27252 26.7813 8.27252 26.7813C9.8676 29.5224 12.4568 28.7315 13.4755 28.2713C13.6364 27.1119 14.0988 26.321 14.6104 25.872C10.6428 25.4185 6.46968 23.8793 6.46968 17.0052C6.46968 15.046 7.16669 13.4442 8.3105 12.1887C8.12508 11.7352 7.51296 9.91005 8.48475 7.44147C8.48475 7.44147 9.986 6.95893 13.3996 9.28006C14.8249 8.88241 16.3529 8.68358 17.8743 8.67688C19.3912 8.68581 20.9215 8.88241 22.349 9.28229C25.7603 6.96116 27.2593 7.44371 27.2593 7.44371C28.2334 9.91452 27.6212 11.7375 27.438 12.191C28.5841 13.4465 29.2744 15.0483 29.2744 17.0075C29.2744 23.8994 25.0968 25.4163 21.1158 25.8608C21.757 26.4149 22.3289 27.5095 22.3289 29.1828C22.3289 31.5821 22.3065 33.5168 22.3065 34.1043C22.3065 34.5846 22.6282 35.1431 23.5352 34.9666C30.6282 32.5897 35.7441 25.8675 35.7441 17.9435C35.7441 8.03348 27.7419 0 17.8698 0Z" fill="#555555"/>
</svg>
