<svg width="608" height="388" viewBox="0 0 608 388" fill="none" xmlns="http://www.w3.org/2000/svg">
<path fill-rule="evenodd" clip-rule="evenodd" d="M91.0847 306.765H196.142V316.142H94.5L120.011 388H110.424L44.3904 205.956L53.1947 202.745L91.0847 306.765Z" fill="black"/>
<path fill-rule="evenodd" clip-rule="evenodd" d="M14.1458 377.378C14.1458 377.378 15.4408 316.528 16.4324 269.942C17.0669 240.107 40.5575 215.792 70.3392 214.145C136.147 210.47 201.115 209.535 264.743 212.957C295.648 214.624 321.168 237.712 325.923 268.31C325.941 268.307 325.941 268.307 325.941 268.307C328.545 285.043 323.999 302.101 313.413 315.318C299.98 332.028 277.3 355.307 242.184 377.514C242.184 377.514 255.17 381.269 256.497 387.073C256.497 387.073 157.688 386.958 132.507 386.931C131.579 386.928 130.748 386.358 130.413 385.491C130.077 384.628 130.308 383.643 130.992 383.019C148.681 366.842 215.298 305.924 215.298 305.924L102.931 307.066C102.931 307.066 101.126 369.914 100.702 384.678C100.653 386.387 99.2468 387.747 97.5362 387.736C80.6484 387.617 0.00274909 387.064 0.00274909 387.064C0.00274909 387.064 -0.553171 381.165 14.1458 377.378Z" fill="url(#paint0_linear)"/>
<path fill-rule="evenodd" clip-rule="evenodd" d="M268.55 359.013L182.534 335.908L185.122 333.54L271.444 356.728C270.492 357.488 269.529 358.25 268.55 359.013ZM102.208 332.321L15.0616 334.427L15.1246 331.467L102.293 329.362L102.208 332.321Z" fill="#82B5B2"/>
<path fill-rule="evenodd" clip-rule="evenodd" d="M215.154 306.062L245.728 305.991C246.021 305.991 246.269 306.204 246.313 306.493C246.358 306.783 246.186 307.061 245.905 307.15L197.352 322.342L215.154 306.062ZM102.93 307.162L102.534 320.947L76.7445 309.332C76.2451 309.107 75.9708 308.563 76.0861 308.028C76.2016 307.49 76.6757 307.108 77.2233 307.111L102.93 307.162Z" fill="#346864"/>
<path fill-rule="evenodd" clip-rule="evenodd" d="M252.317 85.9739C252.317 85.9739 222.624 45.8622 155.827 63.3806C146.832 65.7399 75.5846 88.3634 47.4785 151.926C44.7302 158.141 29.9122 186.4 51.3942 201.507C66.3825 212.051 82.4542 210.097 138.769 191.24C143.535 189.644 172.889 183.44 167.582 176.658C167.582 176.658 169.951 177.137 171.088 175.56C171.088 175.56 171.218 176.373 171.314 176.973C171.38 177.384 171.574 177.763 171.868 178.056C173.214 179.399 177.258 183.431 179.801 185.968C180.239 186.403 180.878 186.569 181.471 186.397C182.064 186.229 182.519 185.75 182.658 185.146C183.409 181.911 184.503 177.199 184.503 177.199C184.503 177.199 211.219 183 227.32 156.954C227.32 156.954 227.991 182.68 247.896 193.065C253.709 196.099 285.989 202.542 294.459 169.235C300.382 145.938 304.709 104.311 308.494 74.4021C308.494 74.4021 328.275 61.9787 329.771 56.0282C330.309 53.891 328.139 50.3806 323.304 53.9306C323.304 53.9306 330.524 47.7883 328.116 44.8938C326.774 43.2838 324.028 43.1995 318.59 47.8581C318.59 47.8581 325.364 40.917 322.27 38.1393C318.942 35.1561 315.079 41.292 311.539 44.5948C311.539 44.5948 319.418 32.4905 314.961 30.4003C313.072 29.5147 311.033 29.4032 304.156 38.0681C297.787 46.0922 288.755 46.9201 282.209 46.133C282.209 46.133 284.786 31.0147 281.833 29.5499C278.5 27.8946 275.494 30.8538 268.25 45.7205C261.098 60.392 257.531 74.9287 252.317 85.9739Z" fill="url(#paint1_linear)"/>
<path fill-rule="evenodd" clip-rule="evenodd" d="M173.718 59.8997C225.372 53.4049 249.928 82.9475 252.151 85.7752C248.782 97.7997 243.004 123.488 243.004 123.488L236.924 123.403C237.022 138.413 227.349 156.352 227.349 156.352L227.31 156.983C212.001 181.733 186.764 177.629 184.38 177.274L185.159 173.36L183.136 167.681L182.507 166.073C182.507 166.073 185.298 162.329 187.771 159.013C189.858 156.215 189.37 152.268 186.666 150.062C181.256 145.65 173.246 139.117 173.246 139.117C173.199 139.081 173.153 139.045 173.107 139.01C166.671 134.084 158.54 131.926 150.511 133.015C133.495 135.32 99.2835 139.956 99.2835 139.956L78.6287 108.006C102.726 84.7474 130.991 72.0733 146.043 66.5743L173.718 59.8997Z" fill="#82B5B2"/>
<path fill-rule="evenodd" clip-rule="evenodd" d="M171.1 175.601C171.676 174.9 173.581 172.253 171.872 169.699L169.468 166.79C169.468 166.79 172.841 167.277 174.211 167.147C174.211 167.147 174.023 170.525 176.811 171.112C177.574 171.27 178.361 170.984 178.845 170.374C180.191 168.683 183.204 164.881 183.204 164.881C183.204 164.881 184.884 172.136 185.188 173.448C185.219 173.581 185.22 173.719 185.19 173.853C184.913 175.106 183.446 181.745 183.446 181.745L182.661 185.128C182.521 185.731 182.067 186.21 181.473 186.378C180.88 186.55 180.241 186.384 179.803 185.95C177.26 183.413 173.217 179.38 171.87 178.038C171.576 177.744 171.382 177.365 171.317 176.955L171.1 175.601ZM159.192 132.978C159.192 132.978 169.894 134.546 176.761 142.165L172.03 119.32L156.352 119.41L159.192 132.978Z" fill="#FFBF2F"/>
<path fill-rule="evenodd" clip-rule="evenodd" d="M183.525 181.393L183.443 181.763L182.658 185.145C182.518 185.748 182.064 186.227 181.47 186.396C180.877 186.567 180.238 186.402 179.8 185.967L176.202 182.378L183.525 181.393ZM172.9 167.164C173.405 167.191 173.868 167.197 174.208 167.164C174.208 167.164 174.02 170.542 176.808 171.13C177.111 171.192 177.418 171.185 177.708 171.115L178.142 173.134L184.668 171.234L185.185 173.465C185.201 173.534 185.209 173.604 185.209 173.675L171.583 177.696C171.447 177.476 171.355 177.23 171.314 176.972L171.097 175.618C171.2 175.493 171.346 175.305 171.506 175.065L174.423 174.217L172.9 167.164ZM165.944 134.945L162.586 119.392L166.585 119.369L170.397 137.102C168.868 136.213 167.348 135.505 165.944 134.945Z" fill="black"/>
<path fill-rule="evenodd" clip-rule="evenodd" d="M168.155 178.874L159.165 178.155C158.514 178.103 158.029 177.532 158.081 176.881C158.133 176.231 158.703 175.745 159.353 175.797L169.48 176.606C168.508 176.851 167.583 176.664 167.583 176.664C168.166 177.409 168.331 178.148 168.155 178.874ZM172.227 167.72C172.31 167.658 172.403 167.606 172.504 167.566C172.504 167.566 173.637 167.122 174.843 166.648C176.265 166.09 177.32 164.868 177.665 163.38C177.665 163.38 177.665 163.38 177.665 163.38C178.368 160.345 177.102 157.194 174.495 155.49C171.534 153.555 168.365 151.484 168.365 151.484C167.819 151.127 167.665 150.393 168.022 149.847C168.378 149.3 169.112 149.146 169.658 149.504L175.554 153.357L175.712 152.016C175.788 151.367 176.376 150.903 177.024 150.979C177.672 151.056 178.136 151.644 178.06 152.292L177.721 155.169C179.815 157.504 180.7 160.757 179.968 163.914C179.968 163.914 179.968 163.914 179.968 163.914C179.447 166.161 177.853 168.008 175.707 168.85C174.5 169.324 173.367 169.768 173.367 169.768C172.946 169.934 172.487 169.84 172.166 169.565C171.867 169.788 171.468 169.867 171.087 169.741L161 166.412C160.38 166.207 160.043 165.538 160.248 164.918C160.452 164.298 161.121 163.961 161.741 164.165L171.828 167.495C171.979 167.545 172.114 167.622 172.227 167.72ZM243.422 110.521C243.422 110.521 234.81 146.651 232.921 162.787C232.844 163.435 233.308 164.023 233.959 164.099C234.606 164.175 235.194 163.71 235.268 163.062C237.15 147.01 245.724 111.07 245.724 111.07C245.875 110.435 245.482 109.797 244.846 109.645C244.214 109.494 243.576 109.886 243.422 110.521ZM105.644 135.212C85.1413 139.81 72.614 143.715 66.5252 147.107C65.8126 147.503 65.5561 148.404 65.953 149.117C66.3496 149.831 67.2502 150.087 67.9627 149.69C73.9256 146.369 86.2112 142.6 106.291 138.097C107.086 137.919 107.588 137.127 107.409 136.331C107.231 135.535 106.44 135.033 105.644 135.212ZM308.862 74.1737C308.622 74.3269 308.495 74.4082 308.495 74.4082C308.22 76.5735 307.942 78.8004 307.665 81.0766L301.6 79.4807C301.369 79.4198 301.198 79.225 301.168 78.9875C301.136 78.7504 301.251 78.5177 301.458 78.3991L308.862 74.1737ZM328.5 45.5924C329.496 48.6699 323.305 53.9367 323.305 53.9367C323.482 53.8063 323.657 53.6857 323.825 53.5742C319.507 57.5347 313.676 62.2338 308.046 64.7131C307.449 64.9763 306.751 64.7048 306.488 64.1073C306.225 63.51 306.497 62.8113 307.094 62.5484C316.572 58.3739 326.624 47.6519 328.5 45.5924ZM323.077 40.1153C323.024 43.3212 318.591 47.8642 318.591 47.8642C318.916 47.5833 319.235 47.3195 319.546 47.0726C315.195 51.2578 308.894 56.789 303.358 59.6013C302.776 59.897 302.064 59.6642 301.768 59.0823C301.473 58.5001 301.706 57.7878 302.289 57.4921C311.217 52.9557 322.179 41.0988 323.077 40.1153ZM315.857 35.7465C314.654 39.8179 311.539 44.6009 311.539 44.6009C311.637 44.511 311.734 44.4191 311.829 44.3257C308.223 48.101 303.356 52.2342 297.879 54.3126C297.267 54.5438 296.585 54.2363 296.354 53.626C296.124 53.0157 296.431 52.332 297.04 52.1005C306.494 48.5135 313.995 38.4198 315.857 35.7465Z" fill="#82B5B2"/>
<path fill-rule="evenodd" clip-rule="evenodd" d="M135.537 135.004L144.677 125.296C145.088 124.859 145.726 124.721 146.281 124.948C146.837 125.176 147.194 125.722 147.181 126.322L147.024 133.448L135.537 135.004ZM236.906 124.825C236.88 123.536 236.696 115.906 235.91 110.671C235.851 110.423 235.987 110.171 236.226 110.082C236.463 109.993 236.732 110.096 236.847 110.323C238.555 113.578 241.15 118.856 242.637 123.443L236.927 123.363C236.93 123.847 236.921 124.335 236.906 124.825Z" fill="#346864"/>
<path d="M171.491 51.1442C184.231 51.1442 194.559 40.7768 194.559 27.9881C194.559 15.1993 184.231 4.83197 171.491 4.83197C158.751 4.83197 148.424 15.1993 148.424 27.9881C148.424 40.7768 158.751 51.1442 171.491 51.1442Z" fill="#99C3C0"/>
<path fill-rule="evenodd" clip-rule="evenodd" d="M156.156 45.2799C151.412 41.0365 148.424 34.8598 148.424 27.988C148.424 15.2077 158.76 4.83197 171.491 4.83197C179.289 4.83197 186.189 8.72442 190.365 14.6787L171.474 31.5777C171.248 30.9118 170.902 30.2624 170.435 29.6651C168.461 27.1408 165.065 26.4951 162.856 28.224C160.647 29.9529 160.455 33.4059 162.429 35.9302C163.042 36.7147 163.793 37.3176 164.602 37.7245L156.156 45.2799Z" fill="black"/>
<path d="M428.301 68.0926H410.671L418.104 93.7077H435.733L428.301 68.0926Z" fill="white"/>
<path fill-rule="evenodd" clip-rule="evenodd" d="M418.54 93.1146H424.106C424.426 93.1146 424.69 93.3763 424.69 93.6988C424.689 94.0213 424.427 94.2831 424.104 94.2831H418.101C417.843 94.2831 417.615 94.1114 417.542 93.8617L410.11 68.2466C410.059 68.07 410.093 67.8797 410.204 67.7329C410.314 67.5859 410.486 67.4994 410.671 67.4994H423.038C423.36 67.4994 423.622 67.7611 423.621 68.0837C423.621 68.4062 423.361 68.6679 423.038 68.6679H411.447L418.54 93.1146Z" fill="black"/>
<path fill-rule="evenodd" clip-rule="evenodd" d="M427.861 68.6679H423.037C422.715 68.6679 422.453 68.4062 422.453 68.0837C422.454 67.7611 422.714 67.4994 423.037 67.4994H428.3C428.559 67.4994 428.787 67.6711 428.859 67.9208L436.292 93.5359C436.343 93.7125 436.309 93.9028 436.198 94.0498C436.087 94.1966 435.916 94.2831 435.733 94.2831H424.103C423.781 94.2831 423.519 94.0213 423.519 93.6988C423.52 93.3763 423.782 93.1146 424.105 93.1146H434.954L427.861 68.6679Z" fill="black"/>
<path d="M427.543 70.4084H412.949L413.927 73.2415H428.521L427.543 70.4084Z" fill="black"/>
<path d="M428.972 75.0432H414.378L415.356 77.8763H429.95L428.972 75.0432Z" fill="black"/>
<path d="M430.407 79.6779H415.813L416.791 82.5111H431.385L430.407 79.6779Z" fill="black"/>
<path d="M431.836 84.3619H417.242L418.22 87.1951H432.815L431.836 84.3619Z" fill="black"/>
<path d="M433.266 88.9966H418.672L419.65 91.8298H434.244L433.266 88.9966Z" fill="black"/>
<path fill-rule="evenodd" clip-rule="evenodd" d="M432.356 82.8023C431.78 81.1766 428.34 71.0031 430.997 66.6834C431.177 66.4022 431.463 66.207 431.789 66.1446C432.734 65.9914 434.75 66.3903 437.602 70.9907C437.602 70.9907 463.498 109.902 472.846 115.715C472.846 115.715 473.094 86.0034 508.06 81.1455C512.913 80.4711 547.025 73.8376 566.143 121.191C572.468 136.857 572.397 149.384 572.285 162.773C572.211 173.387 566.705 183.222 557.694 188.825C545.887 196.17 531.245 197.317 518.439 191.897C509.848 188.275 498.759 184.594 486.172 182.74L458.538 180.067C458.538 180.067 459.919 187.622 448.478 186.167C448.478 186.167 439.47 184.978 441.27 178.934C441.27 178.934 435.199 177.951 436.452 172.081C436.452 172.081 430.698 167.589 435.808 162.105C435.808 162.105 419.195 161.905 415.817 153.989C415.534 153.305 415.516 152.537 415.773 151.84C416.083 150.98 416.887 150.063 418.847 149.996C418.847 149.996 441.828 149.643 447.875 147.91L434.738 125.55C434.738 125.55 424.506 119.923 422.148 110.929C419.719 110.94 417.656 109.065 417.469 106.603C417.31 104.497 418.575 102.609 420.449 101.886L419.373 101.967C416.831 102.159 414.614 100.251 414.422 97.7097C414.269 95.6585 415.48 93.8176 417.289 93.0828C414.836 93.196 412.723 91.335 412.537 88.8704C412.348 86.3609 414.23 84.1698 416.736 83.9806L432.356 82.8023Z" fill="url(#paint2_linear)"/>
<path fill-rule="evenodd" clip-rule="evenodd" d="M458.162 183C452.753 182.69 448.412 183.988 448.412 183.988C447.629 184.225 446.804 183.778 446.571 182.997C446.337 182.217 446.78 181.392 447.564 181.155C447.564 181.155 453.879 179.26 461.046 180.33L458.54 180.088C458.54 180.088 458.8 181.51 458.162 183ZM438.49 177.797C439.525 174.659 443.045 167.737 454.228 166.03C455.032 165.907 455.789 166.462 455.91 167.269C456.034 168.075 455.478 168.83 454.671 168.953C444.809 170.459 441.96 176.659 441.233 178.948C441.003 178.905 439.699 178.634 438.49 177.797ZM434.32 169.394C435.765 166.31 439.705 161.298 450.291 159.325C451.092 159.176 451.867 159.706 452.015 160.508C452.165 161.31 451.633 162.083 450.832 162.232C437.624 164.694 436.413 172.288 436.454 172.102C436.454 172.102 435.133 171.07 434.32 169.394ZM432.142 161.87C433.871 159.628 439.344 153.388 447.422 152.23C448.229 152.114 448.979 152.676 449.095 153.484C449.21 154.292 448.648 155.041 447.841 155.157C442.155 155.972 437.988 159.701 435.789 162.138C435.514 162.132 434.09 162.082 432.142 161.87ZM518.095 146.905L536.138 153.251C536.907 153.521 537.752 153.116 538.024 152.346C538.293 151.577 537.888 150.732 537.12 150.461L519.077 144.115C518.305 143.845 517.463 144.25 517.191 145.02C516.922 145.79 517.327 146.634 518.095 146.905ZM446.337 145.307C448.232 144.932 469.082 140.881 484.291 141.045C485.107 141.054 485.763 141.723 485.754 142.539C485.745 143.355 485.074 144.01 484.258 144.002C468.571 143.833 447.472 148.048 447.877 147.931L446.337 145.307ZM434.74 125.571L439.312 127.628C439.906 127.904 440.16 128.608 439.888 129.2C439.61 129.792 438.907 130.049 438.316 129.774L436.794 129.065L434.74 125.571ZM431.583 80.4174C434.258 80.8533 436.161 82.2823 436.853 83.4124C438.399 85.935 437.787 88.4108 436.309 90.1743C436.404 90.6441 436.566 91.3612 436.812 92.2346C437.169 92.4863 437.471 92.7483 437.722 93.0096C439.09 94.4319 439.179 95.9411 439.206 96.4068C439.235 96.968 439.185 97.4899 439.067 97.9743C440.355 100.401 442.17 102.794 444.732 104.171C445.306 104.479 445.521 105.197 445.214 105.772C444.907 106.347 444.188 106.563 443.612 106.255C442.528 105.671 441.552 104.935 440.674 104.099C440.677 104.11 440.68 104.121 440.683 104.132C441.644 107.135 440.104 110.378 437.16 111.525C432.68 113.284 426.403 113.401 422.971 113.307C422.64 112.55 422.362 111.763 422.15 110.949C421.848 110.951 431.128 111.352 436.297 109.322C438.1 108.619 439.031 106.623 438.414 104.789C438.405 104.769 438.399 104.748 438.393 104.728C437.95 103.508 436.738 102.737 435.443 102.86L433.008 103.09C432.541 103.229 432.246 103.289 432.246 103.289C432.009 103.338 431.773 103.311 431.566 103.226L417.793 104.529C418.275 103.337 419.233 102.376 420.45 101.907L432.574 100.755C433.292 100.528 434.376 100.105 435.301 99.4104C436.17 98.7573 436.918 97.8433 436.844 96.5372C436.829 96.2788 436.779 95.4411 436.02 94.651C435.08 93.6773 433.236 92.8571 429.71 92.7755C429.615 92.7734 429.524 92.7601 429.438 92.737C425.309 92.8736 421.077 92.9372 416.868 93.1034C415.323 93.0321 413.954 92.1805 413.183 90.9108C419.298 90.5634 425.54 90.5389 431.504 90.2937C432.346 90.2591 433.265 89.8245 434.001 89.166C434.102 88.9874 434.249 88.836 434.43 88.7304C435.346 87.6722 435.736 86.1996 434.837 84.6479C434.004 83.2102 432.358 82.8231 432.358 82.8231C432.222 82.4376 431.923 81.5715 431.583 80.4174ZM439.058 103.327C438.659 103.495 438.597 103.671 438.567 103.728C438.629 103.638 438.706 103.557 438.792 103.487C438.872 103.424 438.96 103.369 439.058 103.327L439.079 103.319L439.058 103.327ZM437.731 100.397C437.618 100.52 437.497 100.639 437.376 100.754C437.657 100.849 437.929 100.967 438.189 101.107C438.029 100.873 437.879 100.635 437.731 100.397Z" fill="#FD9500"/>
<path fill-rule="evenodd" clip-rule="evenodd" d="M472.746 115.663L472.843 115.724C472.843 115.724 473.092 86.0119 508.058 81.154C512.91 80.4795 547.022 73.846 566.141 121.199C566.209 121.364 566.274 121.528 566.339 121.692C555.008 133.624 542.551 124.63 542.551 124.63C536.459 143.26 516.983 135.256 516.983 135.256L523.284 148.715C508.569 143.308 479.945 144.093 479.945 144.093C474.011 136.611 472.885 123.136 472.746 115.663Z" fill="#FD9500"/>
<path fill-rule="evenodd" clip-rule="evenodd" d="M516.397 146.731C516.397 146.731 512.596 134.457 509.859 125.63C509.738 125.234 509.939 124.811 510.32 124.654C510.704 124.498 511.145 124.661 511.334 125.03C516.178 134.506 523.481 148.786 523.481 148.786L516.397 146.731Z" fill="#E86135"/>
<path fill-rule="evenodd" clip-rule="evenodd" d="M408.336 226.175C435.771 192.881 492.584 205.232 505.091 206.882C586.038 217.559 568.084 279.769 565.158 287.714C558.733 305.151 543.264 311.896 520.179 314.241V381.915C520.179 381.915 513.133 375.62 511.514 368.47C511.514 368.47 508.735 368.298 503.93 367.816C503.93 367.816 507.586 377.743 509.51 382.971C509.776 383.686 509.672 384.484 509.235 385.108C508.8 385.735 508.088 386.108 507.326 386.108H415.405C420.412 376.965 430.268 377.042 430.268 377.042C426.417 367.391 422.445 358.005 418.535 348.425C393.361 338.363 371.162 323.425 364.391 301.369C361.764 292.812 360.212 255.162 408.336 226.175Z" fill="url(#paint3_linear)"/>
<path fill-rule="evenodd" clip-rule="evenodd" d="M421.283 355.11C430.436 359.732 446.281 364.019 456.781 346.387C457.003 346.012 457.378 345.757 457.807 345.684C458.235 345.613 458.673 345.734 459.007 346.015C459.007 346.015 465.574 351.571 473.651 354.315C478.309 355.897 483.487 356.565 488.139 354.465C491.218 353.073 494.044 350.462 496.352 346.165C496.736 345.447 497.632 345.175 498.353 345.562C499.071 345.95 499.34 346.846 498.953 347.564C496.272 352.558 492.935 355.542 489.353 357.159C484.007 359.575 478.052 358.933 472.699 357.115C466.342 354.953 460.863 351.16 458.433 349.323C447.874 365.572 432.919 363.274 422.912 359.052L422.214 357.369C421.969 356.775 421.724 356.18 421.478 355.586L421.283 355.11Z" fill="#FD9500"/>
<path fill-rule="evenodd" clip-rule="evenodd" d="M487.641 314.877C487.641 314.877 462.549 314.774 448.741 314.718C448.177 314.715 447.695 315.135 447.621 315.696C447.55 316.258 447.905 316.788 448.452 316.929C462.921 320.726 490.638 328 490.638 328L487.641 314.877Z" fill="#FD9500"/>
<path fill-rule="evenodd" clip-rule="evenodd" d="M521.988 314.04C521.388 314.108 520.788 314.173 520.179 314.235V317.121C509.161 317.813 498.953 317.985 488.999 317.849L507.086 368.11C506.164 368.027 505.106 367.93 503.93 367.811L506.566 374.973C506.415 374.822 506.291 374.636 506.214 374.42L485.84 317.798C483.978 317.76 482.125 317.713 480.271 317.656C479.459 317.633 478.817 316.95 478.841 316.137C478.865 315.321 479.547 314.679 480.36 314.703C493.618 315.102 507.033 315.054 521.988 314.04ZM415.76 218.769C398.917 233.796 392.273 250.195 396.919 278.764C400.081 298.221 408.421 323.224 422.271 357.078C422.362 357.3 422.395 357.533 422.377 357.758C421.094 354.656 419.812 351.548 418.535 348.42C417.356 347.95 416.185 347.468 415.021 346.974C403.746 318.446 396.83 296.639 394.002 279.241C390.541 257.969 393.121 243.169 401.252 230.739C403.483 229.195 405.841 227.672 408.336 226.17C410.62 223.397 413.109 220.939 415.76 218.769Z" fill="#FD9500"/>
<path d="M481.312 79.5009C493.286 79.5009 502.994 69.7172 502.994 57.6484C502.994 45.5796 493.286 35.7959 481.312 35.7959C469.338 35.7959 459.631 45.5796 459.631 57.6484C459.631 69.7172 469.338 79.5009 481.312 79.5009Z" fill="#FFBF2F"/>
<path fill-rule="evenodd" clip-rule="evenodd" d="M464.482 43.8924C468.46 38.9609 474.524 35.8073 481.316 35.8073C493.283 35.8073 502.997 45.5988 502.997 57.6597C502.997 60.1248 502.592 62.4951 501.844 64.7051C498.02 64.37 495.848 61.5208 495.1 60.3295C496.498 59.6092 497.47 58.0213 497.47 56.1803C497.47 53.6628 495.653 51.6187 493.413 51.6187C491.172 51.6187 489.355 53.6628 489.355 56.1803C489.355 56.7753 489.455 57.3442 489.641 57.8658C475.904 59.3463 467.168 47.9998 464.482 43.8924ZM474.329 32.3291C474.891 32.5184 475.508 32.3019 475.831 31.8037C476.15 31.3058 476.094 30.6532 475.689 30.2194C475.573 30.0772 475.443 29.9388 475.307 29.7963C471.891 26.2317 468.043 22.9969 463.944 20.2606C451.336 11.842 436.313 5.54501 421.545 2.20372C406.289 -1.24757 387.247 -1.44183 373.767 7.49006C364.898 13.3657 358.266 25.7983 365.911 35.5069C368.654 38.9893 372.594 41.4095 376.666 43.0393C393.152 49.6367 410.341 45.4746 426.002 38.8683C434.918 35.1069 443.785 30.1206 453.496 28.5733C459.593 27.602 469.001 30.4412 474.329 32.3291Z" fill="black"/>
<path fill-rule="evenodd" clip-rule="evenodd" d="M557.94 314.97L599.196 203.534L608 206.745L542.489 386.589H531.427L554.471 324.343H488.836V314.97H557.94Z" fill="black"/>
<path d="M399.597 87.5175H275.576L290.257 174.661H414.277L399.597 87.5175Z" fill="black"/>
<path d="M367.814 170.302H340.123L344.151 194.223H371.842L367.814 170.302Z" fill="black"/>
<path d="M392.817 94.1738H284.33L296.46 166.215H404.947L392.817 94.1738Z" fill="#EAEAEB"/>
<path d="M389.374 100.534H352.511L357.899 132.534H394.762L389.374 100.534Z" fill="white"/>
<path fill-rule="evenodd" clip-rule="evenodd" d="M353.561 101.421L355.426 112.49C355.507 112.973 355.181 113.431 354.699 113.512C354.216 113.593 353.758 113.267 353.677 112.784L351.638 100.681C351.595 100.424 351.667 100.16 351.835 99.9608C352.004 99.7615 352.251 99.6466 352.512 99.6466H389.373C389.805 99.6466 390.175 99.9593 390.247 100.386L392.286 112.49C392.367 112.973 392.042 113.431 391.559 113.512C391.076 113.593 390.619 113.267 390.538 112.784L388.624 101.421H353.561Z" fill="black"/>
<path fill-rule="evenodd" clip-rule="evenodd" d="M393.716 131.623L390.54 112.761C390.458 112.278 390.783 111.82 391.266 111.739C391.748 111.658 392.206 111.984 392.288 112.466L395.638 132.363C395.681 132.62 395.609 132.884 395.441 133.083C395.272 133.282 395.025 133.397 394.764 133.397H357.901C357.469 133.397 357.099 133.085 357.027 132.658L353.677 112.761C353.596 112.278 353.922 111.82 354.404 111.739C354.887 111.658 355.345 111.984 355.426 112.466L358.652 131.623H393.716Z" fill="black"/>
<path fill-rule="evenodd" clip-rule="evenodd" d="M371.251 132.534H369.454L364.031 100.534H365.83L371.251 132.534ZM384.364 132.534H382.564L377.144 100.534H378.941L384.364 132.534Z" fill="black"/>
<path fill-rule="evenodd" clip-rule="evenodd" d="M393.518 125.186H356.657L356.359 123.412H393.219L393.518 125.186ZM392.191 117.299H355.33L355.032 115.525H391.892L392.191 117.299ZM390.763 108.816H353.903L353.601 107.042H390.465L390.763 108.816Z" fill="black"/>
<path fill-rule="evenodd" clip-rule="evenodd" d="M343.159 159.828H372.58L364.406 111.283H343.16" fill="white"/>
<path fill-rule="evenodd" clip-rule="evenodd" d="M363.658 112.17H343.161C342.672 112.17 342.275 111.772 342.275 111.282C342.275 110.793 342.672 110.395 343.161 110.395H364.408C364.841 110.395 365.21 110.708 365.282 111.135L373.456 159.68C373.5 159.937 373.427 160.201 373.259 160.4C373.09 160.599 372.843 160.714 372.582 160.714H343.16C342.671 160.714 342.274 160.317 342.274 159.827C342.274 159.338 342.671 158.94 343.16 158.94H371.534L363.658 112.17Z" fill="black"/>
<path fill-rule="evenodd" clip-rule="evenodd" d="M343.16 111.283H300.531L308.705 159.828H343.159" fill="white"/>
<path fill-rule="evenodd" clip-rule="evenodd" d="M309.46 158.94H343.162C343.651 158.94 344.049 159.338 344.049 159.827C344.048 160.317 343.652 160.714 343.162 160.714H308.71C308.278 160.714 307.908 160.402 307.836 159.975L299.658 111.43C299.615 111.172 299.687 110.909 299.855 110.71C300.024 110.51 300.272 110.395 300.533 110.395H343.158C343.647 110.395 344.045 110.793 344.045 111.282C344.044 111.772 343.648 112.17 343.158 112.17H301.581L309.46 158.94Z" fill="black"/>
<path d="M364.401 111.283H300.531L301.513 117.112H365.383L364.401 111.283Z" fill="black"/>
<path fill-rule="evenodd" clip-rule="evenodd" d="M370.278 146.146H306.408L306.109 144.371H369.979L370.278 146.146ZM367.645 130.511H303.777L303.476 128.737H367.346L367.645 130.511Z" fill="black"/>
<path fill-rule="evenodd" clip-rule="evenodd" d="M325.073 159.828H323.276L315.051 111.283H316.848L325.073 159.828ZM342.477 159.828H340.678L332.453 111.283H334.252L342.477 159.828ZM359.663 159.828H357.866L349.641 111.283H351.438L359.663 159.828Z" fill="black"/>
<path d="M365.575 139.422C365.612 139.906 365.52 140.355 365.296 140.769C365.06 141.173 364.713 141.506 364.234 141.77C363.753 142.023 363.172 142.182 362.49 142.235C361.668 142.3 360.986 142.206 360.43 141.943C360.044 141.759 359.708 141.49 359.449 141.148C359.178 140.807 359.035 140.467 359.008 140.129C358.993 139.926 359.049 139.752 359.189 139.605C359.316 139.448 359.484 139.367 359.704 139.349C359.877 139.336 360.032 139.38 360.167 139.472C360.303 139.574 360.421 139.735 360.518 139.943C360.643 140.193 360.775 140.398 360.915 140.557C361.044 140.717 361.229 140.85 361.458 140.945C361.698 141.04 361.992 141.073 362.35 141.045C362.847 141.006 363.243 140.862 363.538 140.612C363.833 140.363 363.961 140.069 363.935 139.732C363.914 139.461 363.816 139.254 363.629 139.099C363.454 138.942 363.225 138.836 362.952 138.766C362.678 138.697 362.313 138.635 361.865 138.568C361.265 138.479 360.755 138.361 360.336 138.212C359.918 138.064 359.586 137.84 359.318 137.544C359.062 137.247 358.917 136.873 358.88 136.4C358.845 135.961 358.942 135.557 359.157 135.189C359.386 134.831 359.723 134.533 360.172 134.316C360.631 134.088 361.179 133.954 361.815 133.904C362.324 133.865 362.768 133.886 363.148 133.981C363.527 134.076 363.853 134.221 364.112 134.404C364.37 134.588 364.561 134.788 364.694 135.005C364.827 135.221 364.902 135.43 364.918 135.644C364.933 135.835 364.878 136.021 364.751 136.178C364.613 136.348 364.445 136.44 364.237 136.456C364.041 136.472 363.898 136.438 363.787 136.356C363.675 136.263 363.56 136.124 363.427 135.919C363.253 135.627 363.05 135.405 362.828 135.253C362.607 135.1 362.264 135.036 361.79 135.073C361.362 135.107 361.022 135.224 360.771 135.436C360.519 135.637 360.398 135.873 360.418 136.132C360.431 136.29 360.488 136.433 360.59 136.538C360.692 136.655 360.815 136.736 360.983 136.813C361.152 136.879 361.319 136.934 361.485 136.978C361.651 137.01 361.922 137.057 362.299 137.118C362.77 137.194 363.207 137.274 363.599 137.368C363.979 137.474 364.315 137.606 364.596 137.765C364.876 137.925 365.102 138.145 365.275 138.414C365.447 138.684 365.543 139.017 365.575 139.422Z" fill="black"/>
<path fill-rule="evenodd" clip-rule="evenodd" d="M360.69 133.526L361.952 142.724C362.02 143.209 362.466 143.549 362.95 143.483C363.436 143.416 363.775 142.968 363.71 142.483L362.448 133.285C362.383 132.8 361.934 132.46 361.45 132.526C360.964 132.593 360.626 133.041 360.69 133.526Z" fill="black"/>
<path fill-rule="evenodd" clip-rule="evenodd" d="M308.762 119.963L309.776 125.859C309.858 126.342 310.319 126.666 310.801 126.583C311.283 126.5 311.608 126.041 311.522 125.558L310.509 119.662C310.426 119.179 309.968 118.855 309.486 118.938C309.004 119.021 308.679 119.48 308.762 119.963Z" fill="black"/>
<path fill-rule="evenodd" clip-rule="evenodd" d="M314.361 150.088L315.375 155.985C315.458 156.467 315.919 156.791 316.401 156.709C316.882 156.626 317.208 156.166 317.122 155.684L316.108 149.788C316.025 149.305 315.567 148.981 315.086 149.064C314.604 149.147 314.279 149.606 314.361 150.088Z" fill="black"/>
<path fill-rule="evenodd" clip-rule="evenodd" d="M329.168 135.148C329.438 135.109 329.665 135.332 329.884 135.607C330.247 136.058 330.514 136.718 330.623 137.47C330.732 138.222 330.664 138.931 330.444 139.466C330.312 139.792 330.158 140.07 329.887 140.11C329.402 140.18 329.068 140.63 329.138 141.115C329.208 141.599 329.657 141.936 330.141 141.865C330.825 141.766 331.43 141.333 331.851 140.619C332.332 139.797 332.573 138.556 332.378 137.215C332.184 135.874 331.6 134.753 330.906 134.101C330.3 133.536 329.596 133.293 328.913 133.393C328.428 133.463 328.094 133.913 328.164 134.398C328.234 134.882 328.683 135.219 329.168 135.148Z" fill="black"/>
<path fill-rule="evenodd" clip-rule="evenodd" d="M329.888 140.12C329.62 140.159 329.39 139.936 329.171 139.662C328.811 139.21 328.544 138.55 328.435 137.798C328.326 137.046 328.394 136.337 328.612 135.802C328.743 135.476 328.9 135.197 329.168 135.159C329.653 135.088 329.99 134.638 329.92 134.153C329.85 133.668 329.398 133.333 328.914 133.403C328.231 133.502 327.627 133.935 327.207 134.649C326.724 135.471 326.485 136.712 326.679 138.053C326.874 139.394 327.455 140.516 328.152 141.167C328.758 141.732 329.459 141.975 330.142 141.876C330.627 141.805 330.964 141.355 330.894 140.87C330.824 140.386 330.372 140.05 329.888 140.12Z" fill="black"/>
<path fill-rule="evenodd" clip-rule="evenodd" d="M331.582 150.68C331.853 150.64 332.08 150.863 332.299 151.138C332.662 151.589 332.929 152.249 333.038 153.001C333.147 153.753 333.078 154.462 332.859 154.998C332.727 155.323 332.572 155.602 332.302 155.641C331.817 155.711 331.482 156.162 331.553 156.646C331.623 157.131 332.072 157.467 332.556 157.397C333.24 157.298 333.845 156.865 334.266 156.151C334.747 155.328 334.988 154.087 334.793 152.746C334.599 151.405 334.015 150.284 333.321 149.633C332.715 149.067 332.011 148.825 331.328 148.924C330.843 148.994 330.508 149.444 330.579 149.929C330.649 150.414 331.098 150.75 331.582 150.68Z" fill="black"/>
<path fill-rule="evenodd" clip-rule="evenodd" d="M332.303 155.651C332.034 155.69 331.805 155.468 331.586 155.193C331.226 154.741 330.959 154.082 330.85 153.329C330.741 152.577 330.809 151.869 331.026 151.333C331.158 151.008 331.315 150.729 331.583 150.69C332.068 150.619 332.405 150.169 332.335 149.685C332.265 149.2 331.813 148.864 331.329 148.934C330.645 149.034 330.042 149.466 329.622 150.18C329.139 151.003 328.9 152.244 329.094 153.584C329.289 154.925 329.87 156.047 330.567 156.698C331.173 157.263 331.874 157.506 332.557 157.407C333.042 157.337 333.379 156.886 333.309 156.402C333.239 155.917 332.787 155.581 332.303 155.651Z" fill="black"/>
<path fill-rule="evenodd" clip-rule="evenodd" d="M348.856 150.679C349.126 150.64 349.353 150.863 349.572 151.138C349.935 151.589 350.202 152.249 350.311 153.001C350.42 153.753 350.352 154.462 350.132 154.998C350 155.323 349.846 155.602 349.575 155.641C349.09 155.711 348.755 156.162 348.826 156.646C348.896 157.131 349.345 157.467 349.829 157.397C350.513 157.297 351.118 156.865 351.539 156.15C352.02 155.328 352.261 154.087 352.066 152.746C351.872 151.405 351.288 150.284 350.594 149.633C349.988 149.067 349.284 148.825 348.601 148.924C348.116 148.994 347.782 149.444 347.852 149.929C347.922 150.414 348.371 150.75 348.856 150.679Z" fill="black"/>
<path fill-rule="evenodd" clip-rule="evenodd" d="M349.576 155.651C349.308 155.69 349.078 155.467 348.859 155.193C348.499 154.741 348.232 154.082 348.123 153.329C348.014 152.577 348.082 151.868 348.3 151.333C348.431 151.008 348.588 150.729 348.856 150.69C349.341 150.619 349.678 150.169 349.608 149.684C349.538 149.2 349.086 148.864 348.602 148.934C347.919 149.033 347.315 149.466 346.895 150.18C346.412 151.003 346.173 152.244 346.367 153.584C346.562 154.925 347.143 156.047 347.84 156.698C348.446 157.263 349.147 157.506 349.83 157.407C350.315 157.337 350.652 156.886 350.582 156.401C350.512 155.917 350.06 155.581 349.576 155.651Z" fill="black"/>
<path d="M329.512 34.1283L295.057 19.8701L275.279 63.2335L309.734 77.4916L329.512 34.1283Z" fill="#DD6140"/>
<path d="M324.524 37.3637L296.071 25.5896L293.5 31.2256L321.953 42.9997L324.524 37.3637Z" fill="white"/>
<path fill-rule="evenodd" clip-rule="evenodd" d="M295.035 36.2154C296.234 36.7348 296.811 38.0898 296.311 39.2458C295.811 40.4017 294.429 40.9084 293.229 40.389L292.877 41.2029C294.533 41.9199 296.433 41.1947 297.124 39.5979C297.814 38.0011 297.042 36.1185 295.387 35.4015L295.035 36.2154Z" fill="white"/>
<path fill-rule="evenodd" clip-rule="evenodd" d="M293.23 40.4038C292.03 39.8844 291.454 38.5294 291.954 37.3735C292.454 36.2175 293.836 35.7108 295.035 36.2303L295.387 35.4164C293.729 34.6982 291.829 35.4234 291.138 37.0202C290.448 38.617 291.22 40.4996 292.878 41.2178L293.23 40.4038Z" fill="white"/>
<path fill-rule="evenodd" clip-rule="evenodd" d="M292.017 43.2167C293.216 43.7362 293.792 45.0912 293.292 46.2471C292.792 47.4031 291.41 47.9098 290.211 47.3903L289.859 48.2043C291.514 48.9212 293.414 48.196 294.105 46.5992C294.796 45.0024 294.024 43.1198 292.369 42.4028L292.017 43.2167Z" fill="white"/>
<path fill-rule="evenodd" clip-rule="evenodd" d="M290.211 47.4052C289.012 46.8858 288.435 45.5308 288.935 44.3748C289.436 43.2189 290.817 42.7122 292.017 43.2316L292.369 42.4177C290.711 41.6996 288.811 42.4248 288.12 44.0216C287.429 45.6184 288.201 47.501 289.859 48.2191L290.211 47.4052Z" fill="white"/>
<path fill-rule="evenodd" clip-rule="evenodd" d="M288.992 50.169C290.191 50.6884 290.768 52.0434 290.268 53.1993C289.768 54.3553 288.386 54.862 287.186 54.3425L286.834 55.1565C288.49 55.8735 290.39 55.1482 291.081 53.5514C291.771 51.9546 290.999 50.072 289.344 49.355L288.992 50.169Z" fill="white"/>
<path fill-rule="evenodd" clip-rule="evenodd" d="M287.187 54.3574C285.987 53.8379 285.411 52.4829 285.911 51.327C286.411 50.171 287.793 49.6643 288.992 50.1838L289.344 49.3698C287.686 48.6517 285.786 49.3769 285.095 50.9737C284.404 52.5705 285.176 54.4531 286.834 55.1713L287.187 54.3574Z" fill="white"/>
<path fill-rule="evenodd" clip-rule="evenodd" d="M285.967 57.1703C287.166 57.6897 287.743 59.0447 287.243 60.2007C286.743 61.3566 285.361 61.8633 284.162 61.3439L283.81 62.1578C285.465 62.8748 287.365 62.1496 288.056 60.5528C288.747 58.956 287.975 57.0734 286.319 56.3564L285.967 57.1703Z" fill="white"/>
<path fill-rule="evenodd" clip-rule="evenodd" d="M284.162 61.3588C282.963 60.8393 282.386 59.4843 282.886 58.3284C283.386 57.1724 284.768 56.6657 285.967 57.1852L286.32 56.3713C284.662 55.6531 282.761 56.3783 282.071 57.9751C281.38 59.5719 282.152 61.4545 283.81 62.1727L284.162 61.3588Z" fill="white"/>
<path fill-rule="evenodd" clip-rule="evenodd" d="M302.101 39.2724C303.3 39.7918 303.877 41.1468 303.376 42.3027C302.876 43.4587 301.494 43.9654 300.295 43.4459L299.943 44.2599C301.598 44.9769 303.499 44.2516 304.189 42.6548C304.88 41.0581 304.108 39.1754 302.453 38.4584L302.101 39.2724Z" fill="white"/>
<path fill-rule="evenodd" clip-rule="evenodd" d="M300.295 43.4608C299.096 42.9414 298.52 41.5864 299.02 40.4304C299.52 39.2745 300.902 38.7678 302.101 39.2872L302.453 38.4733C300.795 37.7552 298.895 38.4804 298.204 40.0772C297.513 41.6739 298.285 43.5566 299.943 44.2747L300.295 43.4608Z" fill="white"/>
<path fill-rule="evenodd" clip-rule="evenodd" d="M299.076 46.2738C300.275 46.7933 300.852 48.1483 300.352 49.3042C299.852 50.4601 298.47 50.9668 297.271 50.4474L296.918 51.2613C298.574 51.9783 300.474 51.2531 301.165 49.6563C301.856 48.0595 301.084 46.1769 299.428 45.4599L299.076 46.2738Z" fill="white"/>
<path fill-rule="evenodd" clip-rule="evenodd" d="M297.271 50.4622C296.072 49.9428 295.495 48.5878 295.995 47.4318C296.495 46.2759 297.877 45.7692 299.076 46.2886L299.428 45.4747C297.77 44.7566 295.87 45.4818 295.179 47.0786C294.489 48.6753 295.261 50.558 296.919 51.2761L297.271 50.4622Z" fill="white"/>
<path fill-rule="evenodd" clip-rule="evenodd" d="M296.058 53.2752C297.257 53.7946 297.833 55.1496 297.333 56.3055C296.833 57.4615 295.451 57.9682 294.252 57.4487L293.9 58.2627C295.555 58.9797 297.455 58.2544 298.146 56.6576C298.837 55.0608 298.065 53.1782 296.41 52.4612L296.058 53.2752Z" fill="white"/>
<path fill-rule="evenodd" clip-rule="evenodd" d="M294.252 57.4636C293.053 56.9441 292.476 55.5891 292.977 54.4332C293.477 53.2772 294.859 52.7705 296.058 53.29L296.41 52.476C294.752 51.7579 292.852 52.4831 292.161 54.0799C291.47 55.6767 292.242 57.5593 293.9 58.2775L294.252 57.4636Z" fill="white"/>
<path fill-rule="evenodd" clip-rule="evenodd" d="M293.033 60.2272C294.232 60.7466 294.809 62.1016 294.309 63.2576C293.809 64.4135 292.427 64.9202 291.227 64.4008L290.875 65.2147C292.531 65.9317 294.431 65.2065 295.122 63.6097C295.812 62.0129 295.04 60.1303 293.385 59.4133L293.033 60.2272Z" fill="white"/>
<path fill-rule="evenodd" clip-rule="evenodd" d="M291.228 64.4157C290.028 63.8963 289.452 62.5413 289.952 61.3853C290.452 60.2294 291.834 59.7227 293.033 60.2421L293.385 59.4282C291.727 58.7101 289.827 59.4353 289.136 61.0321C288.446 62.6288 289.217 64.5115 290.875 65.2296L291.228 64.4157Z" fill="white"/>
<path fill-rule="evenodd" clip-rule="evenodd" d="M309.167 42.3293C310.366 42.8487 310.942 44.2037 310.442 45.3597C309.942 46.5156 308.56 47.0223 307.361 46.5029L307.009 47.3168C308.664 48.0338 310.564 47.3086 311.255 45.7118C311.946 44.115 311.174 42.2324 309.519 41.5154L309.167 42.3293Z" fill="white"/>
<path fill-rule="evenodd" clip-rule="evenodd" d="M307.361 46.5178C306.162 45.9983 305.585 44.6433 306.085 43.4874C306.586 42.3314 307.967 41.8247 309.167 42.3442L309.519 41.5302C307.861 40.8121 305.961 41.5373 305.27 43.1341C304.579 44.7309 305.351 46.6136 307.009 47.3317L307.361 46.5178Z" fill="white"/>
<path fill-rule="evenodd" clip-rule="evenodd" d="M306.142 49.3306C307.341 49.8501 307.918 51.2051 307.417 52.361C306.917 53.517 305.535 54.0237 304.336 53.5042L303.984 54.3182C305.639 55.0351 307.54 54.3099 308.23 52.7131C308.921 51.1163 308.149 49.2337 306.494 48.5167L306.142 49.3306Z" fill="white"/>
<path fill-rule="evenodd" clip-rule="evenodd" d="M304.336 53.5191C303.137 52.9997 302.561 51.6447 303.061 50.4887C303.561 49.3328 304.943 48.8261 306.142 49.3455L306.494 48.5316C304.836 47.8134 302.936 48.5387 302.245 50.1354C301.554 51.7322 302.326 53.6149 303.984 54.333L304.336 53.5191Z" fill="white"/>
<path fill-rule="evenodd" clip-rule="evenodd" d="M303.123 56.3321C304.323 56.8515 304.899 58.2065 304.399 59.3625C303.899 60.5184 302.517 61.0251 301.318 60.5057L300.966 61.3196C302.621 62.0366 304.521 61.3114 305.212 59.7146C305.903 58.1178 305.131 56.2352 303.475 55.5182L303.123 56.3321Z" fill="white"/>
<path fill-rule="evenodd" clip-rule="evenodd" d="M301.318 60.5205C300.119 60.0011 299.542 58.6461 300.042 57.4901C300.542 56.3342 301.924 55.8275 303.124 56.3469L303.476 55.533C301.818 54.8149 299.917 55.5401 299.227 57.1369C298.536 58.7336 299.308 60.6163 300.966 61.3344L301.318 60.5205Z" fill="white"/>
<path fill-rule="evenodd" clip-rule="evenodd" d="M300.099 63.2843C301.298 63.8038 301.874 65.1588 301.374 66.3147C300.874 67.4706 299.492 67.9773 298.293 67.4579L297.941 68.2718C299.596 68.9888 301.497 68.2636 302.187 66.6668C302.878 65.07 302.106 63.1874 300.451 62.4704L300.099 63.2843Z" fill="white"/>
<path fill-rule="evenodd" clip-rule="evenodd" d="M298.293 67.4728C297.094 66.9533 296.518 65.5983 297.018 64.4424C297.518 63.2865 298.9 62.7797 300.099 63.2992L300.451 62.4853C298.793 61.7671 296.893 62.4923 296.202 64.0891C295.511 65.6859 296.283 67.5686 297.941 68.2867L298.293 67.4728Z" fill="white"/>
<path fill-rule="evenodd" clip-rule="evenodd" d="M316.232 45.3862C317.431 45.9057 318.008 47.2607 317.508 48.4166C317.008 49.5726 315.626 50.0793 314.427 49.5598L314.075 50.3738C315.73 51.0907 317.63 50.3655 318.321 48.7687C319.012 47.1719 318.24 45.2893 316.584 44.5723L316.232 45.3862Z" fill="white"/>
<path fill-rule="evenodd" clip-rule="evenodd" d="M314.427 49.5748C313.228 49.0553 312.651 47.7003 313.151 46.5444C313.651 45.3884 315.033 44.8817 316.232 45.4012L316.585 44.5873C314.927 43.8691 313.026 44.5943 312.336 46.1911C311.645 47.7879 312.417 49.6705 314.075 50.3887L314.427 49.5748Z" fill="white"/>
<path fill-rule="evenodd" clip-rule="evenodd" d="M313.208 52.3876C314.407 52.9071 314.983 54.2621 314.483 55.418C313.983 56.574 312.601 57.0807 311.402 56.5612L311.05 57.3752C312.705 58.0922 314.605 57.3669 315.296 55.7701C315.987 54.1733 315.215 52.2907 313.56 51.5737L313.208 52.3876Z" fill="white"/>
<path fill-rule="evenodd" clip-rule="evenodd" d="M311.402 56.5762C310.203 56.0567 309.626 54.7017 310.127 53.5458C310.627 52.3898 312.009 51.8831 313.208 52.4026L313.56 51.5887C311.902 50.8705 310.002 51.5957 309.311 53.1925C308.62 54.7893 309.392 56.672 311.05 57.3901L311.402 56.5762Z" fill="white"/>
<path fill-rule="evenodd" clip-rule="evenodd" d="M310.183 59.389C311.382 59.9084 311.959 61.2634 311.459 62.4194C310.959 63.5753 309.577 64.082 308.377 63.5626L308.025 64.3765C309.681 65.0935 311.581 64.3683 312.272 62.7715C312.962 61.1747 312.19 59.2921 310.535 58.5751L310.183 59.389Z" fill="white"/>
<path fill-rule="evenodd" clip-rule="evenodd" d="M308.378 63.5774C307.178 63.058 306.602 61.703 307.102 60.5471C307.602 59.3911 308.984 58.8844 310.183 59.4039L310.535 58.5899C308.877 57.8718 306.977 58.597 306.286 60.1938C305.596 61.7906 306.367 63.6732 308.025 64.3914L308.378 63.5774Z" fill="white"/>
<path fill-rule="evenodd" clip-rule="evenodd" d="M307.164 66.3413C308.364 66.8607 308.94 68.2157 308.44 69.3716C307.94 70.5276 306.558 71.0343 305.359 70.5148L305.007 71.3288C306.662 72.0458 308.562 71.3205 309.253 69.7237C309.944 68.127 309.172 66.2443 307.517 65.5273L307.164 66.3413Z" fill="white"/>
<path fill-rule="evenodd" clip-rule="evenodd" d="M305.359 70.5296C304.16 70.0102 303.583 68.6552 304.083 67.4993C304.583 66.3433 305.965 65.8366 307.165 66.3561L307.517 65.5421C305.859 64.824 303.959 65.5492 303.268 67.146C302.577 68.7428 303.349 70.6254 305.007 71.3436L305.359 70.5296Z" fill="white"/>
<path d="M514.674 193.278H118.516V204.499H514.674V193.278Z" fill="black"/>
<path fill-rule="evenodd" clip-rule="evenodd" d="M402.239 187.358H407.29V185.241H415.175V187.358H420.551V185.241H428.436V187.358H433.815V185.241H441.7V187.358H443.379C444.15 187.358 444.889 187.666 445.436 188.213C445.98 188.757 446.287 189.496 446.287 190.268V193.219H389.164C389.164 193.219 389.164 191.74 389.164 190.268C389.164 189.496 389.472 188.757 390.015 188.213C390.562 187.666 391.301 187.358 392.072 187.358H394.354V185.241H402.239V187.358Z" fill="#D2D3D5"/>
<path d="M206.783 186.129H137.434V194.046H206.783V186.129Z" fill="white"/>
<path fill-rule="evenodd" clip-rule="evenodd" d="M174.951 184.847V187.212H139.01V192.301H174.951V194.667H137.828C137.175 194.667 136.646 194.137 136.646 193.484V186.03C136.646 185.376 137.175 184.847 137.828 184.847H174.951Z" fill="black"/>
<path fill-rule="evenodd" clip-rule="evenodd" d="M174.948 184.847H207.788C208.441 184.847 208.97 185.376 208.97 186.03V193.484C208.97 194.137 208.441 194.667 207.788 194.667H174.948C173.848 193.508 174.269 192.86 174.948 192.301H206.605V187.212H174.948C174.5 186.34 174.39 185.53 174.948 184.847Z" fill="black"/>
<path fill-rule="evenodd" clip-rule="evenodd" d="M179.244 186.383L179.437 193.811C179.454 194.464 179.997 194.979 180.65 194.964C181.302 194.946 181.818 194.402 181.801 193.749L181.607 186.321C181.59 185.67 181.047 185.153 180.395 185.171C179.742 185.188 179.226 185.732 179.244 186.383ZM194.087 182.923V193.355C194.087 194.009 194.617 194.538 195.27 194.538C195.922 194.538 196.452 194.009 196.452 193.355V182.923C196.452 182.27 195.922 181.741 195.27 181.741C194.617 181.741 194.087 182.27 194.087 182.923ZM186.803 183.095V192.684C186.803 193.338 187.332 193.867 187.985 193.867C188.637 193.867 189.167 193.338 189.167 192.684V183.095C189.167 182.441 188.637 181.912 187.985 181.912C187.332 181.912 186.803 182.441 186.803 183.095ZM201.036 183.027V192.433C201.036 193.083 201.565 193.615 202.218 193.615C202.871 193.615 203.4 193.083 203.4 192.433V183.027C203.4 182.376 202.871 181.844 202.218 181.844C201.565 181.844 201.036 182.376 201.036 183.027Z" fill="black"/>
<path fill-rule="evenodd" clip-rule="evenodd" d="M223.928 129.952H221.835C220.671 129.952 219.725 129.006 219.725 127.841C219.725 126.675 220.671 125.729 221.835 125.729H274.318C275.486 125.729 276.428 126.675 276.428 127.841C276.428 129.006 275.486 129.952 274.318 129.952H273.343C274.404 130.325 275.382 130.934 276.192 131.746C277.617 133.169 278.414 135.1 278.414 137.112V193.192H218.853C218.853 193.192 218.853 153.996 218.853 137.112C218.853 135.1 219.654 133.169 221.076 131.746C221.889 130.934 222.864 130.325 223.928 129.952Z" fill="#FFF4E5"/>
<path fill-rule="evenodd" clip-rule="evenodd" d="M273.345 129.97C274.101 130.235 274.813 130.621 275.455 131.114L220.208 132.805C220.466 132.435 220.755 132.087 221.077 131.764C221.89 130.952 222.865 130.343 223.929 129.97H273.345Z" fill="#F4978B"/>
<path d="M239.849 139.728L220.646 145.552L230.732 178.85L249.935 173.026L239.849 139.728Z" fill="#F4978B"/>
<path fill-rule="evenodd" clip-rule="evenodd" d="M235.602 155.756C237.855 155.756 239.684 157.586 239.684 159.84C239.684 162.095 237.855 163.925 235.602 163.925C235.112 163.925 234.716 164.322 234.716 164.812C234.716 165.301 235.112 165.699 235.602 165.699C238.833 165.699 241.457 163.074 241.457 159.84C241.457 156.607 238.833 153.982 235.602 153.982C235.112 153.982 234.716 154.379 234.716 154.869C234.716 155.358 235.112 155.756 235.602 155.756Z" fill="#DE6647"/>
<path fill-rule="evenodd" clip-rule="evenodd" d="M235.599 163.925C233.344 163.925 231.518 162.095 231.518 159.84C231.518 157.586 233.344 155.756 235.599 155.756C236.087 155.756 236.486 155.358 236.486 154.869C236.486 154.379 236.087 153.982 235.599 153.982C232.366 153.982 229.745 156.607 229.745 159.84C229.745 163.074 232.366 165.699 235.599 165.699C236.087 165.699 236.486 165.301 236.486 164.812C236.486 164.322 236.087 163.925 235.599 163.925Z" fill="#DE6647"/>
<path fill-rule="evenodd" clip-rule="evenodd" d="M237.491 176.8L235.96 172.112C235.759 171.492 236.099 170.823 236.717 170.621C237.337 170.418 238.005 170.757 238.209 171.378L239.755 176.114L237.491 176.8ZM240.674 175.835L239.643 172.498C239.451 171.875 239.799 171.212 240.423 171.019C241.046 170.826 241.708 171.175 241.901 171.799L242.938 175.148L240.674 175.835ZM233.161 141.754L234.831 147.154C235.023 147.778 234.674 148.441 234.051 148.634C233.427 148.827 232.765 148.477 232.573 147.853L230.897 142.44L233.161 141.754ZM229.458 142.877L230.862 146.971C231.075 147.588 230.744 148.262 230.126 148.473C229.508 148.685 228.837 148.356 228.625 147.738L227.194 143.563L229.458 142.877Z" fill="#DE6647"/>
<path d="M277.492 159.178L258.11 153.982L249.142 187.599L268.524 192.795L277.492 159.178Z" fill="#F4978B"/>
<path fill-rule="evenodd" clip-rule="evenodd" d="M265.439 170.551C267.352 171.74 267.942 174.26 266.753 176.175C265.565 178.09 263.046 178.679 261.132 177.491C260.716 177.232 260.17 177.36 259.911 177.776C259.653 178.192 259.78 178.739 260.197 178.998C262.942 180.703 266.556 179.858 268.26 177.111C269.965 174.365 269.119 170.749 266.374 169.044C265.957 168.785 265.411 168.914 265.153 169.33C264.895 169.745 265.022 170.292 265.439 170.551Z" fill="#DE6647"/>
<path fill-rule="evenodd" clip-rule="evenodd" d="M261.134 177.5C259.218 176.31 258.631 173.791 259.819 171.876C261.008 169.961 263.524 169.37 265.44 170.56C265.855 170.818 266.403 170.691 266.661 170.275C266.919 169.859 266.79 169.311 266.376 169.053C263.628 167.346 260.017 168.193 258.313 170.94C256.608 173.687 257.452 177.3 260.199 179.007C260.613 179.264 261.162 179.137 261.42 178.722C261.678 178.306 261.548 177.757 261.134 177.5Z" fill="#DE6647"/>
<path fill-rule="evenodd" clip-rule="evenodd" d="M255.949 189.436L257.119 184.645C257.275 184.012 257.917 183.623 258.548 183.777C259.182 183.933 259.571 184.574 259.417 185.209L258.234 190.048L255.949 189.436ZM259.162 190.296L260.044 186.917C260.21 186.286 260.856 185.907 261.487 186.072C262.119 186.237 262.497 186.884 262.332 187.515L261.447 190.908L259.162 190.296ZM270.745 157.378L269.317 162.847C269.151 163.478 268.506 163.857 267.874 163.692C267.243 163.527 266.864 162.88 267.03 162.249L268.46 156.766L270.745 157.378ZM267.007 156.377L266.041 160.596C265.896 161.233 265.26 161.63 264.624 161.484C263.987 161.338 263.591 160.704 263.736 160.067L264.721 155.765L267.007 156.377Z" fill="#DE6647"/>
<path d="M258.766 150.507C262.72 150.507 265.925 147.3 265.925 143.344C265.925 139.389 262.72 136.182 258.766 136.182C254.812 136.182 251.607 139.389 251.607 143.344C251.607 147.3 254.812 150.507 258.766 150.507Z" fill="#FFCF84"/>
<path fill-rule="evenodd" clip-rule="evenodd" d="M258.862 138.76C261.448 138.76 263.55 140.863 263.55 143.453C263.55 146.044 261.448 148.147 258.862 148.147C258.613 148.147 258.408 148.349 258.408 148.597C258.408 148.846 258.613 149.048 258.862 149.048C261.946 149.048 264.451 146.541 264.451 143.453C264.451 140.366 261.946 137.859 258.862 137.859C258.613 137.859 258.408 138.061 258.408 138.309C258.408 138.558 258.613 138.76 258.862 138.76Z" fill="#FDA92F"/>
<path fill-rule="evenodd" clip-rule="evenodd" d="M258.857 148.147C256.267 148.147 254.165 146.044 254.165 143.453C254.165 140.863 256.267 138.76 258.857 138.76C259.102 138.76 259.304 138.558 259.304 138.309C259.304 138.061 259.102 137.859 258.857 137.859C255.769 137.859 253.264 140.366 253.264 143.453C253.264 146.541 255.769 149.048 258.857 149.048C259.102 149.048 259.304 148.846 259.304 148.597C259.304 148.349 259.102 148.147 258.857 148.147Z" fill="#FDA92F"/>
<path fill-rule="evenodd" clip-rule="evenodd" d="M257.707 150.451L257.772 148.738C257.781 148.49 257.991 148.296 258.239 148.306C258.49 148.315 258.682 148.525 258.673 148.773L258.605 150.528C258.301 150.521 257.999 150.495 257.707 150.451ZM260.328 150.36L259.888 148.61C259.829 148.369 259.974 148.124 260.216 148.063C260.455 148.003 260.701 148.149 260.763 148.39L261.194 150.109C260.914 150.21 260.624 150.294 260.328 150.36ZM252.819 147.344L254.166 146.279C254.361 146.125 254.645 146.158 254.799 146.353C254.952 146.549 254.92 146.832 254.725 146.987L253.365 148.06C253.17 147.834 252.987 147.594 252.819 147.344ZM251.908 145.408L253.593 144.495C253.812 144.376 254.086 144.457 254.205 144.676C254.323 144.895 254.24 145.169 254.021 145.287L252.225 146.263C252.1 145.986 251.997 145.701 251.908 145.408ZM265.852 144.426L264.227 144.35C263.978 144.339 263.786 144.127 263.798 143.879C263.81 143.63 264.02 143.438 264.268 143.449L265.929 143.527C265.923 143.831 265.896 144.131 265.852 144.426ZM263.78 138.252C263.996 138.463 264.197 138.687 264.386 138.924L263.065 140.281C262.891 140.459 262.607 140.464 262.43 140.29C262.249 140.116 262.246 139.831 262.421 139.653L263.78 138.252ZM255.207 137.158L256.377 138.907C256.516 139.113 256.46 139.393 256.253 139.532C256.046 139.67 255.765 139.615 255.629 139.408L254.456 137.656C254.692 137.475 254.944 137.308 255.207 137.158ZM259.394 136.232C259.696 136.258 259.994 136.303 260.287 136.366L260.11 138.156C260.083 138.404 259.861 138.584 259.616 138.56C259.368 138.535 259.188 138.314 259.211 138.067L259.394 136.232Z" fill="#FDA92F"/>
<path d="M239.421 158.387C238.973 162.317 241.794 165.866 245.723 166.316C249.651 166.765 253.199 163.943 253.648 160.013C254.096 156.084 251.274 152.534 247.346 152.085C243.417 151.636 239.869 154.457 239.421 158.387Z" fill="#FFCF84"/>
<path fill-rule="evenodd" clip-rule="evenodd" d="M251.054 159.804C250.761 162.375 248.435 164.225 245.862 163.931C243.29 163.636 241.439 161.309 241.733 158.738C241.761 158.491 241.583 158.264 241.336 158.236C241.089 158.208 240.866 158.388 240.837 158.636C240.488 161.701 242.693 164.476 245.76 164.826C248.826 165.177 251.6 162.972 251.95 159.906C251.978 159.659 251.801 159.432 251.554 159.404C251.307 159.376 251.083 159.556 251.054 159.804Z" fill="#FDA92F"/>
<path fill-rule="evenodd" clip-rule="evenodd" d="M241.735 158.767C242.029 156.193 244.356 154.343 246.928 154.637C249.501 154.931 251.351 157.259 251.057 159.833C251.029 160.077 251.207 160.3 251.454 160.329C251.701 160.357 251.925 160.179 251.952 159.935C252.303 156.866 250.097 154.092 247.03 153.741C243.964 153.391 241.19 155.596 240.84 158.665C240.812 158.909 240.99 159.132 241.237 159.16C241.484 159.189 241.707 159.011 241.735 158.767Z" fill="#FDA92F"/>
<path fill-rule="evenodd" clip-rule="evenodd" d="M239.618 157.346L241.312 157.605C241.558 157.642 241.727 157.873 241.689 158.118C241.651 158.367 241.421 158.534 241.175 158.497L239.44 158.23C239.481 157.929 239.541 157.632 239.618 157.346ZM239.411 159.962L241.199 159.723C241.445 159.692 241.672 159.863 241.705 160.111C241.738 160.356 241.565 160.583 241.318 160.617L239.563 160.851C239.494 160.561 239.443 160.263 239.411 159.962ZM243.258 152.84L244.163 154.301C244.294 154.512 244.229 154.79 244.017 154.921C243.806 155.051 243.528 154.987 243.397 154.776L242.485 153.302C242.732 153.134 242.99 152.979 243.258 152.84ZM245.284 152.155L246 153.933C246.093 154.164 245.981 154.428 245.75 154.521C245.52 154.614 245.258 154.5 245.165 154.269L244.399 152.373C244.688 152.281 244.983 152.21 245.284 152.155ZM244.679 166.126L244.938 164.519C244.978 164.274 245.209 164.107 245.455 164.147C245.7 164.187 245.867 164.417 245.828 164.662L245.563 166.305C245.261 166.264 244.966 166.204 244.679 166.126ZM251.045 164.768C250.811 164.958 250.565 165.133 250.309 165.294L249.111 163.827C248.954 163.633 248.982 163.351 249.174 163.194C249.367 163.035 249.651 163.064 249.808 163.258L251.045 164.768ZM253.104 156.37L251.234 157.335C251.013 157.45 250.742 157.362 250.627 157.141C250.513 156.919 250.6 156.647 250.821 156.535L252.694 155.568C252.847 155.823 252.984 156.092 253.104 156.37ZM253.548 160.638C253.488 160.935 253.41 161.226 253.314 161.51L251.557 161.13C251.314 161.076 251.159 160.835 251.212 160.594C251.264 160.35 251.504 160.196 251.747 160.248L253.548 160.638Z" fill="#FDA92F"/>
<path d="M226.018 190.456C228.916 193.147 233.446 192.979 236.136 190.08C238.827 187.182 238.659 182.65 235.761 179.959C232.863 177.268 228.333 177.436 225.643 180.335C222.953 183.233 223.121 187.765 226.018 190.456Z" fill="#FFCF84"/>
<path fill-rule="evenodd" clip-rule="evenodd" d="M234.059 181.921C235.955 183.682 236.065 186.654 234.303 188.552C232.542 190.45 229.571 190.561 227.676 188.8C227.493 188.63 227.206 188.639 227.037 188.821C226.868 189.004 226.88 189.291 227.063 189.461C229.323 191.56 232.864 191.428 234.964 189.166C237.064 186.903 236.933 183.36 234.672 181.261C234.49 181.091 234.202 181.1 234.033 181.282C233.864 181.464 233.877 181.752 234.059 181.921Z" fill="#FDA92F"/>
<path fill-rule="evenodd" clip-rule="evenodd" d="M227.678 188.798C225.78 187.034 225.67 184.063 227.432 182.164C229.193 180.266 232.163 180.156 234.061 181.919C234.241 182.086 234.527 182.075 234.696 181.893C234.865 181.711 234.855 181.426 234.674 181.258C232.412 179.156 228.871 179.288 226.771 181.551C224.671 183.814 224.802 187.356 227.065 189.458C227.245 189.626 227.53 189.615 227.699 189.432C227.868 189.25 227.858 188.965 227.678 188.798Z" fill="#FDA92F"/>
<path fill-rule="evenodd" clip-rule="evenodd" d="M225.295 189.653L226.507 188.442C226.683 188.266 226.969 188.266 227.144 188.442C227.321 188.62 227.32 188.905 227.144 189.081L225.901 190.321C225.683 190.108 225.479 189.884 225.295 189.653ZM227.278 191.37L228.145 189.789C228.266 189.572 228.539 189.49 228.757 189.611C228.974 189.73 229.054 190.004 228.936 190.223L228.083 191.776C227.809 191.659 227.539 191.524 227.278 191.37ZM223.826 184.048L225.537 184.185C225.785 184.205 225.97 184.422 225.95 184.67C225.93 184.918 225.714 185.103 225.466 185.084L223.739 184.945C223.75 184.646 223.779 184.346 223.826 184.048ZM224.475 182.01L226.331 182.487C226.572 182.549 226.718 182.796 226.656 183.037C226.594 183.277 226.347 183.422 226.106 183.36L224.126 182.851C224.222 182.564 224.341 182.285 224.475 182.01ZM235.362 190.782L234.222 189.62C234.048 189.443 234.051 189.157 234.228 188.983C234.406 188.809 234.69 188.811 234.865 188.988L236.029 190.175C235.818 190.395 235.595 190.596 235.362 190.782ZM238.042 184.848C238.056 185.149 238.051 185.45 238.029 185.752L236.138 185.848C235.889 185.86 235.678 185.669 235.666 185.421C235.652 185.172 235.844 184.96 236.093 184.948L238.042 184.848ZM232.503 178.209L232.171 180.287C232.133 180.533 231.901 180.7 231.655 180.661C231.409 180.622 231.241 180.39 231.282 180.146L231.614 178.063C231.91 178.091 232.208 178.14 232.503 178.209ZM236.201 180.382C236.405 180.606 236.593 180.842 236.764 181.087L235.417 182.278C235.229 182.442 234.944 182.423 234.781 182.238C234.616 182.051 234.634 181.766 234.819 181.601L236.201 180.382Z" fill="#FDA92F"/>
<path d="M270.83 192.749C274.715 192.01 277.266 188.261 276.528 184.375C275.79 180.49 272.043 177.939 268.158 178.678C264.274 179.417 261.723 183.167 262.461 187.052C263.199 190.938 266.946 193.488 270.83 192.749Z" fill="#FFCF84"/>
<path fill-rule="evenodd" clip-rule="evenodd" d="M268.736 181.211C271.278 180.727 273.736 182.4 274.219 184.945C274.702 187.489 273.029 189.948 270.488 190.432C270.243 190.478 270.08 190.715 270.126 190.959C270.172 191.204 270.411 191.364 270.656 191.317C273.687 190.741 275.68 187.81 275.104 184.776C274.528 181.743 271.599 179.749 268.568 180.325C268.324 180.372 268.16 180.609 268.207 180.853C268.253 181.097 268.492 181.258 268.736 181.211Z" fill="#FDA92F"/>
<path fill-rule="evenodd" clip-rule="evenodd" d="M270.486 190.457C267.941 190.941 265.484 189.268 265 186.724C264.517 184.179 266.19 181.72 268.735 181.236C268.976 181.19 269.136 180.954 269.09 180.71C269.044 180.465 268.808 180.305 268.566 180.351C265.532 180.928 263.539 183.859 264.115 186.892C264.691 189.926 267.62 191.92 270.654 191.343C270.895 191.297 271.056 191.061 271.009 190.816C270.963 190.572 270.727 190.411 270.486 190.457Z" fill="#FDA92F"/>
<path fill-rule="evenodd" clip-rule="evenodd" d="M269.776 192.849L269.52 191.155C269.482 190.909 269.652 190.679 269.898 190.642C270.147 190.605 270.374 190.775 270.412 191.021L270.673 192.757C270.372 192.807 270.071 192.838 269.776 192.849ZM272.334 192.27L271.575 190.633C271.472 190.407 271.569 190.14 271.795 190.035C272.019 189.93 272.288 190.029 272.394 190.254L273.138 191.861C272.881 192.013 272.612 192.15 272.334 192.27ZM264.393 190.711L265.519 189.413C265.681 189.225 265.966 189.205 266.154 189.368C266.341 189.531 266.362 189.815 266.199 190.004L265.064 191.313C264.83 191.126 264.605 190.926 264.393 190.711ZM263.138 188.98L264.622 187.768C264.815 187.61 265.1 187.639 265.257 187.831C265.414 188.024 265.384 188.308 265.191 188.466L263.608 189.76C263.434 189.512 263.279 189.251 263.138 188.98ZM276.654 185.408L275.043 185.637C274.797 185.672 274.569 185.501 274.534 185.255C274.5 185.008 274.67 184.78 274.916 184.745L276.562 184.51C276.613 184.811 276.643 185.11 276.654 185.408ZM273.467 179.731C273.719 179.898 273.958 180.08 274.188 180.277L273.143 181.858C273.005 182.065 272.727 182.122 272.52 181.985C272.311 181.848 272.255 181.568 272.393 181.361L273.467 179.731ZM264.839 180.259L266.315 181.758C266.49 181.935 266.487 182.22 266.31 182.395C266.132 182.57 265.846 182.568 265.674 182.39L264.195 180.889C264.393 180.666 264.609 180.456 264.839 180.259ZM268.781 178.567C269.082 178.536 269.384 178.524 269.683 178.531L269.843 180.322C269.863 180.571 269.679 180.79 269.433 180.811C269.185 180.834 268.966 180.651 268.943 180.403L268.781 178.567Z" fill="#FDA92F"/>
<path fill-rule="evenodd" clip-rule="evenodd" d="M251.812 192.292L217.132 252.71H202.869C202.869 252.71 198.487 262.078 205.127 265.508H270.546C270.614 265.508 270.679 265.513 270.747 265.522C272.051 265.617 279.495 265.404 285.386 250.135C294.955 225.332 304.655 211.024 314.452 192.292H251.812Z" fill="#E9E9EB"/>
<path d="M237.666 247.891C243.346 248.7 249.427 244.853 251.247 239.299C253.068 233.745 249.939 228.586 244.259 227.777C238.579 226.968 232.498 230.815 230.678 236.369C228.857 241.924 231.986 247.082 237.666 247.891Z" fill="white"/>
<path d="M306.73 195.526L252.881 194.954L250.577 199.161L304.426 199.733L306.73 195.526Z" fill="#BABDC2"/>
<path d="M303.115 203.28L249.013 202.794L246.715 207.005L300.817 207.491L303.115 203.28Z" fill="#BABDC2"/>
<path d="M298.94 211.701L244.664 210.288L242.298 214.458L296.574 215.871L298.94 211.701Z" fill="#BABDC2"/>
<path d="M294.615 220.026L240.622 217.684L238.19 221.812L292.183 224.153L294.615 220.026Z" fill="#BABDC2"/>
<path d="M288.8 228.704L259.978 227.25L257.958 231.275L286.779 232.73L288.8 228.704Z" fill="#BABDC2"/>
<path d="M284.031 237.246L264.567 236.075L262.883 240.12L282.347 241.291L284.031 237.246Z" fill="#BABDC2"/>
<path d="M280.133 245.791L254.311 243.866L252.901 247.93L278.723 249.855L280.133 245.791Z" fill="#BABDC2"/>
<path fill-rule="evenodd" clip-rule="evenodd" d="M218.432 250.472H265.161C265.214 250.472 265.267 250.478 265.32 250.484C265.823 250.552 266.245 250.827 266.44 251.466C266.535 251.774 266.544 252.386 266.423 253.213C265.994 256.179 264.082 263.663 271.736 265.517C271.284 265.567 270.944 265.559 270.749 265.547C270.681 265.538 270.616 265.532 270.548 265.532H266.55C266.29 265.301 266.05 265.059 265.829 264.808C263.133 261.744 263.423 257.309 263.86 254.337C263.934 253.826 264.008 253.273 264.064 252.838L217.135 252.734L218.432 250.472Z" fill="black"/>
<path d="M236.199 239.85C237.006 240.896 238.15 241.555 239.637 241.863C241.423 242.193 242.503 241.778 242.934 240.632C243.254 239.692 242.854 239.008 241.734 238.582C241.203 238.402 240.634 238.216 240.013 238C238.906 237.595 238.145 237.012 237.744 236.271C237.33 235.509 237.29 234.668 237.604 233.745C237.979 232.645 238.664 231.832 239.698 231.315C240.693 230.789 241.899 230.665 243.302 230.919C244.994 231.287 246.316 232.018 247.277 233.095L245.59 234.45C244.787 233.631 243.773 233.074 242.554 232.818C241.922 232.694 241.338 232.732 240.814 232.952C240.271 233.167 239.884 233.584 239.659 234.184C239.533 234.557 239.577 234.906 239.78 235.267C239.984 235.629 240.415 235.921 241.043 236.176C241.388 236.3 241.881 236.472 242.508 236.669C243.736 237.079 244.529 237.688 244.905 238.499C245.269 239.29 245.309 240.13 245.001 241.035C244.122 243.438 242.097 244.349 238.965 243.776C236.955 243.385 235.413 242.459 234.351 241.022L236.199 239.85Z" fill="black"/>
<path fill-rule="evenodd" clip-rule="evenodd" d="M243.698 229.259L236.844 244.796L238.432 245.28L245.344 229.607L243.698 229.259Z" fill="black"/>
<path fill-rule="evenodd" clip-rule="evenodd" d="M389.63 225.639C388.859 224.793 387.83 224.323 386.994 224.873C384.056 226.804 382.053 228.865 379.171 230.873C370.263 237.082 357.768 238.812 352.244 248.998C346.643 259.318 346.36 271.965 341.377 282.689C334.665 297.143 325.057 309.967 317.94 324.207C309.127 341.833 295.402 380.486 295.402 380.486C290.968 380.421 269.107 383.274 255.816 385.326C255.311 385.403 254.953 385.858 254.992 386.367C255.03 386.878 255.456 387.272 255.967 387.272C287.301 387.272 379.177 387.272 400.551 387.272C401.641 387.272 402.649 386.689 403.196 385.746C403.743 384.803 403.748 383.638 403.205 382.691C400.468 377.904 395.73 375.098 390.455 373.791C386.397 372.786 382.481 373.28 378.394 373.626C378.24 373.637 378.045 373.664 377.927 373.543C377.897 373.513 377.856 373.46 377.838 373.425C376.753 371.171 377.333 358.38 377.368 355.503C377.519 343.516 378.054 331.493 379.082 319.547C379.413 315.712 380.099 304.686 380.099 304.686C380.099 304.686 389.314 303.417 391.959 302.817C398.473 301.344 403.793 297.125 407.517 291.637C413.04 283.497 413.398 272.441 415.898 263.18C417.988 255.427 421.898 249.386 425.241 242.275C426.975 238.584 426.364 233.132 422.353 231.148C418.431 229.205 414.32 233.265 411.852 235.861C404 244.134 403.598 255.518 396.889 263.724C392.131 269.54 382.531 270.607 382.531 270.607C382.531 270.607 382.236 263.514 382.531 261.545C384.012 251.689 389.565 245.424 391.826 236.355C392.479 233.729 392.11 228.348 389.63 225.639Z" fill="#DD6140"/>
<path fill-rule="evenodd" clip-rule="evenodd" d="M367.507 308.798C371.78 306.613 380.097 304.709 380.097 304.709C380.097 304.709 379.878 308.239 379.627 311.998C376.42 310.835 372.401 310.492 367.962 310.566C367.53 310.572 367.149 310.28 367.043 309.863C366.933 309.443 367.125 309.002 367.507 308.798Z" fill="black"/>
<path fill-rule="evenodd" clip-rule="evenodd" d="M371.748 238.802L373.646 240.2C374.172 240.588 374.914 240.475 375.301 239.949C375.688 239.426 375.576 238.684 375.05 238.296L373.152 236.898C372.626 236.51 371.887 236.623 371.5 237.146C371.113 237.672 371.222 238.415 371.748 238.802Z" fill="black"/>
<path fill-rule="evenodd" clip-rule="evenodd" d="M377.678 372.966C377.598 372.842 377.542 372.703 377.51 372.549C375.051 360.042 371.758 351.482 368.032 345.801C364.458 340.355 360.513 337.626 356.564 336.656C348.6 334.695 340.765 339.775 336.405 343.326C334.419 344.941 332.918 346.52 332.918 346.52C332.69 346.801 332.336 346.972 331.946 346.955C331.295 346.922 330.79 346.366 330.822 345.716C330.822 345.698 330.796 345.34 331.168 344.929C331.419 344.654 332.779 343.229 334.913 341.49C339.701 337.587 348.375 332.206 357.129 334.358C361.541 335.443 366.013 338.412 370.009 344.503C372.666 348.551 375.125 354.007 377.229 361.248C377.143 365.61 377.134 370.967 377.678 372.966ZM357.15 244.779C357.15 244.779 353.319 254.407 350.958 260.35C349.542 263.904 351.02 267.955 354.386 269.768C355.92 270.599 357.475 271.214 359.047 271.601C361.181 272.133 363.442 271.648 365.174 270.294C366.909 268.937 367.919 266.858 367.919 264.655C367.919 257.201 367.919 245.214 367.919 245.214C367.919 244.563 367.39 244.031 366.737 244.031C366.087 244.031 365.555 244.563 365.555 245.214C365.555 245.214 365.555 257.201 365.555 264.655C365.555 266.131 364.878 267.521 363.717 268.428C362.558 269.339 361.045 269.661 359.614 269.307C358.228 268.964 356.863 268.42 355.509 267.686C353.195 266.441 352.184 263.662 353.154 261.225C355.518 255.282 359.348 245.651 359.348 245.651C359.588 245.045 359.292 244.356 358.686 244.117C358.078 243.874 357.392 244.17 357.15 244.779ZM382.457 268.245C382.493 269.602 382.534 270.608 382.534 270.608C382.534 270.608 382.723 270.587 383.063 270.537C381.603 270.835 380.252 270.962 378.985 270.951C378.331 270.945 377.808 270.409 377.814 269.759C377.82 269.106 378.352 268.579 379.005 268.585C380.081 268.594 381.225 268.488 382.457 268.245ZM424.844 233.354C425.285 234.019 425.61 234.764 425.825 235.548C421.336 238.8 417.979 243.753 417.819 244.046C417.509 244.619 416.791 244.832 416.217 244.522C415.644 244.211 415.431 243.493 415.741 242.919C415.919 242.588 419.758 236.92 424.844 233.354ZM420.467 230.645C421.097 230.681 421.729 230.837 422.356 231.148C422.616 231.275 422.861 231.42 423.095 231.577C421.185 233.031 417.305 236.343 413.324 241.831C412.943 242.357 412.201 242.476 411.675 242.091C411.146 241.71 411.027 240.968 411.412 240.441C414.858 235.69 418.242 232.49 420.467 230.645ZM383.072 227.839C384.298 226.834 385.531 225.837 386.997 224.873C387.833 224.323 388.862 224.793 389.633 225.639C390.218 226.278 390.685 227.064 391.052 227.931C387.694 231.417 383.985 228.626 383.072 227.839Z" fill="black"/>
<defs>
<linearGradient id="paint0_linear" x1="164.785" y1="299.295" x2="456.547" y2="127.339" gradientUnits="userSpaceOnUse">
<stop stop-color="#B8D8D5"/>
<stop offset="0.42" stop-color="#CEE0DA"/>
<stop offset="1" stop-color="#FFF0E6"/>
</linearGradient>
<linearGradient id="paint1_linear" x1="68.9215" y1="92.5861" x2="-75.1072" y2="272.973" gradientUnits="userSpaceOnUse">
<stop stop-color="#B8D8D5"/>
<stop offset="0.47" stop-color="#CCDFDA"/>
<stop offset="1" stop-color="#FFF0E6"/>
</linearGradient>
<linearGradient id="paint2_linear" x1="492.417" y1="130.699" x2="581.355" y2="217.264" gradientUnits="userSpaceOnUse">
<stop stop-color="#FFBF2F"/>
<stop offset="1" stop-color="#FD9500"/>
</linearGradient>
<linearGradient id="paint3_linear" x1="553.227" y1="292.605" x2="408.194" y2="194.896" gradientUnits="userSpaceOnUse">
<stop stop-color="#FFBF2F"/>
<stop offset="0.48" stop-color="#FEB422"/>
<stop offset="1" stop-color="#FD9500"/>
</linearGradient>
</defs>
</svg>
