<svg width="35" height="35" viewBox="0 0 35 35" fill="none" xmlns="http://www.w3.org/2000/svg">
<path d="M24.0625 0H10.9375C4.89781 0 0 4.89781 0 10.9375V24.0625C0 30.1022 4.89781 35 10.9375 35H24.0625C30.1022 35 35 30.1022 35 24.0625V10.9375C35 4.89781 30.1022 0 24.0625 0ZM31.7188 24.0625C31.7188 28.2844 28.2844 31.7188 24.0625 31.7188H10.9375C6.71563 31.7188 3.28125 28.2844 3.28125 24.0625V10.9375C3.28125 6.71563 6.71563 3.28125 10.9375 3.28125H24.0625C28.2844 3.28125 31.7188 6.71563 31.7188 10.9375V24.0625Z" fill="#555555"/>
<path d="M17.5 8.75C12.6678 8.75 8.75 12.6678 8.75 17.5C8.75 22.3322 12.6678 26.25 17.5 26.25C22.3322 26.25 26.25 22.3322 26.25 17.5C26.25 12.6678 22.3322 8.75 17.5 8.75ZM17.5 22.9688C14.4856 22.9688 12.0312 20.5144 12.0312 17.5C12.0312 14.4834 14.4856 12.0312 17.5 12.0312C20.5144 12.0312 22.9688 14.4834 22.9688 17.5C22.9688 20.5144 20.5144 22.9688 17.5 22.9688Z" fill="#555555"/>
<path d="M26.9063 9.25959C27.5502 9.25959 28.0722 8.73758 28.0722 8.09366C28.0722 7.44974 27.5502 6.92773 26.9063 6.92773C26.2624 6.92773 25.7404 7.44974 25.7404 8.09366C25.7404 8.73758 26.2624 9.25959 26.9063 9.25959Z" fill="#555555"/>
</svg>
